<svg width="176" height="202" viewBox="0 0 176 202" fill="none" xmlns="http://www.w3.org/2000/svg">
<path d="M55.7076 82.4069C48.0312 79.5368 41.7279 75.1271 36.9429 68.5935C32.4333 62.4728 30.0193 55.0602 30.0597 47.4577C29.9915 32.4544 30.0597 17.4512 30 2.44796C30 0.6312 30.4265 -0.0042434 32.3797 2.13034e-05C58.2537 0.0639919 84.1234 2.52036e-05 109.997 0.0639958C129.67 0.115172 145.369 15.5321 145.928 35.1668C146.013 38.1094 146.013 38.118 143.049 38.118H123.644C122.929 38.0641 122.211 38.1933 121.559 38.4933C122.105 38.7364 122.655 38.9837 123.205 39.2183C135.479 44.4212 142.789 53.6586 145.416 66.6531C145.782 68.5386 145.962 70.4556 145.953 72.3763C145.991 87.6653 145.953 102.95 146 118.239C146 119.881 145.548 120.465 143.838 120.461C117.397 120.401 90.9554 120.542 64.5143 120.337C47.3147 120.205 32.2262 106.085 30.3966 88.9405C29.6929 82.4027 29.6929 82.4027 36.1284 82.4069H55.7076ZM36.9429 88.804C36.886 89.2453 36.8561 89.6896 36.8534 90.1346C36.8868 90.5587 36.961 90.9786 37.0752 91.3884C40.3803 103.364 48.0354 110.861 60.1643 113.642C62.1706 114.088 64.2202 114.311 66.2756 114.307C89.9447 114.35 113.614 114.362 137.283 114.345C138.682 114.345 139.731 114.324 139.722 112.388C139.65 98.664 139.884 84.9359 139.582 71.2163C139.351 60.9597 134.336 53.1084 125.815 47.5131C121.674 44.8427 116.913 43.287 111.993 42.9968C108.129 42.7068 108.479 43.5427 108.449 39.086C108.449 37.5209 108.564 35.943 108.419 34.3949C108.24 32.4971 108.952 31.964 110.82 31.9853C119.491 32.0706 128.165 32.0194 136.835 32.0194H139.343C139.168 30.8125 139.1 29.8871 138.916 29.0341C136.276 17.5578 125.696 6.08576 108.786 6.15826C85.471 6.25635 62.1559 6.2009 38.845 6.15826C36.9344 6.15826 36.2862 6.67002 36.2862 8.67017C36.3715 21.5411 36.2862 34.4119 36.3672 47.2828C36.3535 49.6134 36.5938 51.9386 37.0837 54.2172C38.5521 60.6873 42.1577 66.4738 47.3188 70.6428C52.4798 74.8119 58.8951 77.1203 65.5293 77.1955C67.5721 77.2211 68.0881 77.9119 67.9729 79.7841C67.8256 81.9139 67.8256 84.0514 67.9729 86.1812C68.1265 88.1814 67.3801 88.74 65.444 88.7016C56.9146 88.6121 48.3851 88.659 39.8557 88.6675C38.9559 88.6803 38.0475 88.7613 36.9429 88.804Z" fill="#18948A"/>
<path d="M80.7195 68.2886L79.18 64.0239C78.7535 64.8768 78.4763 65.427 78.1906 65.9558C77.659 67.0079 76.8877 67.9204 75.9388 68.6197C74.9898 69.319 73.8898 69.7856 72.7275 69.9817C69.1494 70.6427 68.6419 70.148 68.7272 66.5443C68.7528 65.3758 68.9788 64.5826 70.3478 64.6465C71.7892 64.7105 71.8788 63.7424 71.8788 62.6592C71.8788 59.0342 71.9172 55.4092 71.8788 51.7799C71.8575 50.4237 71.5858 49.8821 73.7212 49.8821C78.8358 49.8821 79.8924 49.0418 80.3284 55.2256C80.7644 61.4094 81.0735 63.7083 81.3507 68.1607L80.7195 68.2886Z" fill="#18948A"/>
<path d="M96.5868 60.0554C96.5868 59.5607 96.6209 59.0617 96.5868 58.567C96.1006 51.9226 101.321 49.5557 106.076 49.8713C107.21 49.948 107.696 50.3191 107.782 51.5004C108.003 54.6435 107.922 54.7117 104.796 55.3386C104.25 55.4453 103.538 56.3707 103.483 56.972C103.341 58.8851 103.322 60.8054 103.427 62.7208C103.641 67.9707 98.523 70.8238 93.1665 69.9964C92.8254 69.941 92.4032 69.2373 92.3392 68.7895C92.1578 67.8816 92.1578 66.9467 92.3392 66.0388C92.4493 65.7262 92.6307 65.4436 92.8691 65.2134C93.1074 64.9831 93.3962 64.8116 93.7124 64.7125C96.5826 64.286 96.5911 64.35 96.6039 61.3391V60.0597L96.5868 60.0554Z" fill="#18948A"/>
<path d="M59.1325 59.8829C59.1325 57.2601 59.1751 54.6331 59.1111 52.0145C59.0728 50.5304 59.4992 49.8225 61.1497 49.8609C67.4188 50.0059 66.1948 49.1529 66.2673 54.8079C66.3398 59.2731 66.2673 63.7382 66.3014 68.2076C66.3014 69.5254 65.9304 70.1566 64.5017 70.1182C58.0109 69.9434 59.2519 71.0266 59.1154 65.0006C59.1026 63.2861 59.1325 61.5845 59.1325 59.8829Z" fill="#18948A"/>
<path d="M90.2317 59.9952C90.2317 62.763 90.1976 65.5393 90.2317 68.3029C90.2317 69.5311 89.8351 70.1367 88.5258 70.1068C82.1288 69.9746 83.293 70.9385 83.2077 65.1043C83.1438 60.7714 83.2333 56.4427 83.1651 52.1098C83.1395 50.5148 83.5916 49.8068 85.3358 49.8537C91.1188 50.0158 90.1251 49.1671 90.2232 54.6686C90.2573 56.4427 90.2317 58.2211 90.2317 59.9952Z" fill="#18948A"/>
<path fill-rule="evenodd" clip-rule="evenodd" d="M109.741 57.492C109.735 58.2554 109.729 59.0187 109.729 59.7816C109.732 61.5586 109.732 63.3313 109.729 65.0997C109.729 70.1077 109.729 70.1077 114.549 70.1309C114.626 70.1313 114.704 70.1316 114.783 70.132C116.565 70.1406 116.941 69.4412 116.915 67.8717C116.881 65.5744 116.888 63.2758 116.895 60.9773C116.901 58.9493 116.907 56.9213 116.885 54.8942C116.856 51.9713 117.068 50.7483 116.562 50.2389C116.049 49.7226 114.798 49.9392 111.81 49.8619C110.258 49.8193 109.64 50.3097 109.699 51.9132C109.769 53.7701 109.755 55.6312 109.741 57.492ZM113.364 64.1827C112.724 64.1827 112.335 63.7093 112.335 63.2275L112.331 56.6854C112.331 56.3052 112.724 55.8665 113.364 55.8665C114.003 55.8665 114.43 56.3215 114.43 56.7194C114.43 56.7194 114.43 60.6859 114.43 63.2275C114.43 63.7562 114.003 64.1827 113.364 64.1827Z" fill="#18948A"/>
<path d="M11.6875 163.715C11.7448 164.001 11.7233 164.316 11.623 164.66C11.5228 165.004 11.3581 165.391 11.1289 165.82C10.9141 166.236 10.6204 166.622 10.248 166.98C10.0046 167.21 9.8112 167.324 9.66797 167.324C9.58203 167.324 9.38151 167.202 9.06641 166.959C8.76562 166.701 8.48633 166.472 8.22852 166.271C7.98503 166.057 7.77018 165.863 7.58398 165.691C7.41211 165.52 7.32617 165.376 7.32617 165.262C7.51237 164.875 7.64844 164.581 7.73438 164.381C8.02083 163.736 8.26432 163.228 8.46484 162.855C8.67969 162.483 9.00911 161.932 9.45312 161.201C9.71094 161.416 10.026 161.674 10.3984 161.975C10.7852 162.261 11.0788 162.533 11.2793 162.791C11.4941 163.049 11.6302 163.357 11.6875 163.715ZM18.1758 161.609C17.918 166.107 16.6146 169.974 14.2656 173.211C11.9453 176.348 9.15951 177.93 5.9082 177.959C4.2181 177.887 2.87891 177.329 1.89062 176.283C0.902344 175.252 0.379557 173.812 0.322266 171.965C0.307943 169.043 1.26758 165.87 3.20117 162.447C3.57357 161.76 3.79557 161.545 3.86719 161.803C3.9388 162.046 3.93164 162.297 3.8457 162.555C2.57096 165.076 1.91927 167.253 1.89062 169.086C1.94792 170.461 2.4349 171.507 3.35156 172.223C4.28255 172.939 5.50716 173.326 7.02539 173.383C8.88737 173.383 10.6777 172.889 12.3965 171.9C14.1009 170.769 15.2897 169.258 15.9629 167.367C16.2207 166.708 16.3496 165.835 16.3496 164.746C16.3496 164.331 16.3424 163.808 16.3281 163.178C16.3281 162.533 16.3281 162.075 16.3281 161.803C16.3854 161.015 16.5716 160.148 16.8867 159.203C17.2018 158.243 17.4596 157.549 17.6602 157.119C17.875 156.689 18.054 156.475 18.1973 156.475C18.2975 156.475 18.3405 156.589 18.3262 156.818C18.3118 157.033 18.2904 157.456 18.2617 158.086C18.2331 158.716 18.2044 159.891 18.1758 161.609ZM23.4609 158.365C23.4323 159.396 23.4108 160.327 23.3965 161.158C23.3822 161.989 23.3392 162.691 23.2676 163.264C23.153 164.495 22.9167 165.591 22.5586 166.551C22.2005 167.496 21.9141 168.126 21.6992 168.441C21.4987 168.757 21.334 168.986 21.2051 169.129C21.0475 169.272 20.9258 169.322 20.8398 169.279C20.7539 169.222 20.7253 169.136 20.7539 169.021C20.7539 168.993 20.8398 168.563 21.0117 167.732C21.1836 166.887 21.291 166.071 21.334 165.283C21.377 164.495 21.3841 163.385 21.3555 161.953C21.3268 160.507 21.3626 159.404 21.4629 158.645C21.5202 158.201 21.6133 157.742 21.7422 157.27C21.8854 156.797 22.043 156.331 22.2148 155.873C22.3867 155.415 22.5658 154.985 22.752 154.584C22.9525 154.169 23.1315 153.803 23.2891 153.488C23.418 153.288 23.5326 153.209 23.6328 153.252C23.7331 153.295 23.776 153.374 23.7617 153.488C23.7331 153.603 23.6973 153.875 23.6543 154.305C23.6257 154.72 23.597 155.193 23.5684 155.723C23.5397 156.238 23.5111 156.747 23.4824 157.248C23.4681 157.749 23.4609 158.122 23.4609 158.365ZM37.2754 157.141C36.5592 159.69 35.7572 161.187 34.8691 161.631C33.623 162.232 32.8639 162.633 32.5918 162.834C32.3197 163.049 32.1406 163.214 32.0547 163.328C31.7682 163.729 31.4889 164.245 31.2168 164.875C30.7441 166.078 30.3646 167.002 30.0781 167.646C29.6055 168.635 28.9036 169.337 27.9727 169.752C27.5286 169.924 26.9414 170.074 26.2109 170.203C25.4518 170.361 24.8574 170.439 24.4277 170.439C24.0553 170.482 23.819 170.396 23.7188 170.182C23.6901 170.053 23.8333 169.874 24.1484 169.645C24.263 169.559 24.5065 169.38 24.8789 169.107C25.2513 168.821 25.9173 168.377 26.877 167.775C27.6217 167.274 27.9727 167.038 27.9297 167.066C28.7604 166.465 29.3333 165.949 29.6484 165.52C29.7487 165.391 30.0853 164.674 30.6582 163.371C31.2454 162.068 31.6895 161.223 31.9902 160.836C32.291 160.435 32.7637 160.027 33.4082 159.611C33.6517 159.482 34.0742 159.26 34.6758 158.945C35.2057 158.688 35.5781 158.465 35.793 158.279C35.9935 158.107 36.2513 157.735 36.5664 157.162C36.8815 156.604 37.1035 156.331 37.2324 156.346C37.3613 156.389 37.3757 156.654 37.2754 157.141ZM29.8418 184.941C29.8418 185.027 30.0495 185.242 30.4648 185.586C30.8945 185.93 31.2096 186.188 31.4102 186.359C31.625 186.546 31.7897 186.639 31.9043 186.639C32.3626 186.639 32.9785 185.858 33.752 184.297C34.0671 184.526 34.4323 184.848 34.8477 185.264C35.263 185.679 35.5495 185.887 35.707 185.887C35.9505 185.887 36.3301 185.521 36.8457 184.791C37.3757 184.046 37.6406 183.402 37.6406 182.857C37.612 182.399 37.347 181.905 36.8457 181.375C36.3587 180.859 35.9362 180.602 35.5781 180.602C35.4635 180.602 35.2272 180.895 34.8691 181.482C34.5254 182.07 34.2103 182.6 33.9238 183.072C33.6803 182.729 33.3223 182.327 32.8496 181.869C32.3913 181.425 32.0404 181.253 31.7969 181.354C31.668 181.354 31.3099 181.905 30.7227 183.008C30.1354 184.111 29.8418 184.755 29.8418 184.941ZM41.1641 158.365C41.1354 159.396 41.1139 160.327 41.0996 161.158C41.0853 161.989 41.0423 162.691 40.9707 163.264C40.8561 164.495 40.6198 165.591 40.2617 166.551C39.9036 167.496 39.6172 168.126 39.4023 168.441C39.2018 168.757 39.0371 168.986 38.9082 169.129C38.7507 169.272 38.6289 169.322 38.543 169.279C38.457 169.222 38.4284 169.136 38.457 169.021C38.457 168.993 38.543 168.563 38.7148 167.732C38.8867 166.887 38.9941 166.071 39.0371 165.283C39.0801 164.495 39.0872 163.385 39.0586 161.953C39.0299 160.507 39.0658 159.404 39.166 158.645C39.2233 158.201 39.3164 157.742 39.4453 157.27C39.5885 156.797 39.7461 156.331 39.918 155.873C40.0898 155.415 40.2689 154.985 40.4551 154.584C40.6556 154.169 40.8346 153.803 40.9922 153.488C41.1211 153.288 41.2357 153.209 41.3359 153.252C41.4362 153.295 41.4792 153.374 41.4648 153.488C41.4362 153.603 41.4004 153.875 41.3574 154.305C41.3288 154.72 41.3001 155.193 41.2715 155.723C41.2428 156.238 41.2142 156.747 41.1855 157.248C41.1712 157.749 41.1641 158.122 41.1641 158.365ZM48.0176 157.936C48.1178 157.635 48.3327 157.585 48.6621 157.785C50.5098 158.902 51.4336 160.399 51.4336 162.275C51.362 163.679 51.0612 164.911 50.5312 165.971C50.0156 167.016 49.4857 167.811 48.9414 168.355C48.0104 169.301 46.6641 169.995 44.9023 170.439C44.6875 170.482 44.5156 170.504 44.3867 170.504C44.2148 170.504 44.1289 170.461 44.1289 170.375C44.1289 170.217 44.3867 169.952 44.9023 169.58C45.9336 168.864 46.9004 168.048 47.8027 167.131C48.6764 166.257 49.1133 165.677 49.1133 165.391C49.1133 164.646 48.2969 163.607 46.6641 162.275C46.3633 162.032 46.2702 161.731 46.3848 161.373C46.8145 160.542 47.3587 159.396 48.0176 157.936ZM60.6719 159.311C60.6576 159.697 60.5072 160.399 60.2207 161.416C59.9486 162.433 59.5833 163.543 59.125 164.746C58.681 165.949 58.2871 166.859 57.9434 167.475C57.5996 168.09 57.2201 168.563 56.8047 168.893C56.4036 169.208 55.7448 169.501 54.8281 169.773C53.9258 170.031 53.1953 170.21 52.6367 170.311C52.0924 170.396 51.7487 170.439 51.6055 170.439C51.4622 170.425 51.3763 170.368 51.3477 170.268C51.319 170.167 51.362 170.038 51.4766 169.881C51.6341 169.637 52.028 169.322 52.6582 168.936C53.3027 168.535 54.0475 168.04 54.8926 167.453C55.7376 166.852 56.3392 166.329 56.6973 165.885C57.0553 165.441 57.4564 164.775 57.9004 163.887C58.3587 162.999 58.7669 162.104 59.125 161.201C59.4974 160.299 59.7624 159.683 59.9199 159.354C60.0775 159.024 60.2493 158.867 60.4355 158.881C60.5931 158.91 60.6719 159.053 60.6719 159.311ZM66.8594 152.365C66.8307 153.396 66.8092 154.327 66.7949 155.158C66.7806 155.989 66.7376 156.691 66.666 157.264C66.5514 158.495 66.3151 159.591 65.957 160.551C65.599 161.496 65.3125 162.126 65.0977 162.441C64.8971 162.757 64.7324 162.986 64.6035 163.129C64.446 163.272 64.3242 163.322 64.2383 163.279C64.1523 163.222 64.1237 163.136 64.1523 163.021C64.1523 162.993 64.2383 162.563 64.4102 161.732C64.582 160.887 64.6895 160.071 64.7324 159.283C64.7754 158.495 64.7826 157.385 64.7539 155.953C64.7253 154.507 64.7611 153.404 64.8613 152.645C64.9186 152.201 65.0117 151.742 65.1406 151.27C65.2839 150.797 65.4414 150.331 65.6133 149.873C65.7852 149.415 65.9642 148.985 66.1504 148.584C66.3509 148.169 66.5299 147.803 66.6875 147.488C66.8164 147.288 66.931 147.209 67.0312 147.252C67.1315 147.295 67.1745 147.374 67.1602 147.488C67.1315 147.603 67.0957 147.875 67.0527 148.305C67.0241 148.72 66.9954 149.193 66.9668 149.723C66.9382 150.238 66.9095 150.747 66.8809 151.248C66.8665 151.749 66.8594 152.122 66.8594 152.365ZM69.6738 168.957C69.373 169.329 69.1152 169.594 68.9004 169.752C68.6139 169.952 68.3203 170.117 68.0195 170.246C67.7331 170.361 67.4108 170.454 67.0527 170.525C66.709 170.611 66.3652 170.697 66.0215 170.783L64.6035 171.127C64.0306 171.227 63.6797 171.242 63.5508 171.17C63.5508 170.969 63.7871 170.719 64.2598 170.418C64.6895 170.146 65.1263 169.874 65.5703 169.602C66.0143 169.315 66.4583 169.036 66.9023 168.764C68.0339 167.976 68.8789 167.238 69.4375 166.551C69.8672 166.021 70.2038 165.555 70.4473 165.154C70.6048 164.925 70.8411 164.531 71.1562 163.973L72.0801 162.082C72.2949 161.638 72.5026 161.28 72.7031 161.008C72.8893 160.736 73.0612 160.607 73.2188 160.621C73.362 160.693 73.4049 160.836 73.3477 161.051C73.1901 161.523 73.0898 161.831 73.0469 161.975C72.8177 162.734 72.7031 163.264 72.7031 163.564C72.6172 163.822 72.5599 163.987 72.5312 164.059C72.1875 164.832 71.8294 165.562 71.457 166.25C71.3424 166.522 70.748 167.424 69.6738 168.957ZM70.5332 167.689C70.4329 167.646 70.6621 167.002 71.2207 165.756C71.765 164.51 72.2591 163.765 72.7031 163.521C72.7031 164.61 72.875 165.348 73.2188 165.734C73.5482 166.135 73.9421 166.336 74.4004 166.336C74.5866 166.336 74.7656 166.279 74.9375 166.164C75.0807 166.035 75.2741 165.756 75.5176 165.326C75.6322 165.097 75.7611 164.982 75.9043 164.982C76.0189 164.982 76.0762 165.083 76.0762 165.283C76.0475 165.527 75.9544 165.964 75.7969 166.594C75.5964 167.238 75.3958 167.79 75.1953 168.248C74.9375 168.821 74.6725 169.265 74.4004 169.58C73.9707 170.167 73.4479 170.461 72.832 170.461C72.2305 170.447 71.7292 170.153 71.3281 169.58C70.9271 169.064 70.6621 168.434 70.5332 167.689ZM74.959 150.115C74.959 149.8 75.224 149.12 75.7539 148.074C76.2982 147.014 76.6491 146.484 76.8066 146.484C77.1217 146.355 77.5801 146.599 78.1816 147.215C78.7832 147.816 79.1055 148.289 79.1484 148.633C79.1484 149.091 78.8978 149.75 78.3965 150.609C77.8952 151.469 77.5299 151.898 77.3008 151.898C77.2148 151.855 76.9141 151.669 76.3984 151.34C75.8971 150.996 75.5247 150.738 75.2812 150.566C75.0664 150.423 74.959 150.273 74.959 150.115ZM80.2227 162.361C80.194 162.906 80.1367 163.4 80.0508 163.844C79.9648 164.273 79.8503 164.646 79.707 164.961C79.5638 165.262 79.3776 165.491 79.1484 165.648C78.9336 165.792 78.6686 165.842 78.3535 165.799C78.3678 164.682 78.4824 163.128 78.6973 161.137C78.9264 159.132 79.263 156.919 79.707 154.498C79.9362 153.796 80.4017 152.557 81.1035 150.781C81.1751 150.609 81.2467 150.538 81.3184 150.566C81.4043 150.595 81.4473 150.667 81.4473 150.781C81.4043 151.655 81.2253 153.324 80.9102 155.787C80.5951 158.251 80.4017 159.941 80.3301 160.857C80.2585 161.774 80.2227 162.275 80.2227 162.361ZM87.6992 165.971C87.2695 165.899 86.9473 165.899 86.7324 165.971C85.9876 166.214 85.2214 167.023 84.4336 168.398C83.5885 169.773 82.6432 170.461 81.5977 170.461C80.5378 170.375 79.7357 169.895 79.1914 169.021C78.6471 168.148 78.3678 167.074 78.3535 165.799C78.597 164.968 78.8691 164.252 79.1699 163.65C79.4707 163.035 79.8216 162.612 80.2227 162.383C80.2227 163.815 80.5736 164.854 81.2754 165.498C81.8053 165.971 82.4212 166.207 83.123 166.207C84.097 166.207 84.8991 165.777 85.5293 164.918C86.002 164.288 86.403 163.837 86.7324 163.564C87.0762 163.292 87.3984 163.156 87.6992 163.156C87.7279 163.214 87.778 163.421 87.8496 163.779C87.9212 164.123 87.957 164.431 87.957 164.703C87.957 164.99 87.9284 165.226 87.8711 165.412C87.8281 165.584 87.7708 165.77 87.6992 165.971ZM80.1367 146.957C80.1367 146.771 80.4303 146.126 81.0176 145.023C81.6048 143.921 81.9629 143.369 82.0918 143.369C82.3353 143.269 82.6862 143.448 83.1445 143.906C83.6172 144.35 83.9753 144.744 84.2188 145.088C84.5052 144.615 84.8203 144.085 85.1641 143.498C85.5221 142.911 85.7585 142.617 85.873 142.617C86.2311 142.617 86.6536 142.882 87.1406 143.412C87.6419 143.928 87.9069 144.415 87.9355 144.873C87.9355 145.417 87.6706 146.062 87.1406 146.807C86.625 147.537 86.2454 147.902 86.002 147.902C85.8444 147.902 85.5579 147.695 85.1426 147.279C84.7272 146.864 84.362 146.542 84.0469 146.312C83.2734 147.874 82.6576 148.654 82.1992 148.654C82.0846 148.654 81.9199 148.561 81.7051 148.375C81.5046 148.203 81.1895 147.945 80.7598 147.602C80.3444 147.258 80.1367 147.043 80.1367 146.957ZM88.4512 163.775C88.6803 163.847 88.9238 163.797 89.1816 163.625C89.4538 163.453 89.8262 162.966 90.2988 162.164C90.5423 162.307 90.6999 162.393 90.7715 162.422C91.2155 162.579 91.6237 162.057 91.9961 160.854C92.0534 160.839 92.1895 160.868 92.4043 160.939C92.6335 161.011 92.8197 160.939 92.9629 160.725C93.1204 160.524 93.278 160.216 93.4355 159.801C93.6074 159.371 93.7148 159.156 93.7578 159.156C93.8581 159.142 93.9225 159.199 93.9512 159.328C93.9798 159.457 93.9727 159.607 93.9297 159.779C93.8151 160.41 93.6146 161.047 93.3281 161.691C93.0846 162.279 92.7839 162.723 92.4258 163.023C92.082 163.324 91.7598 163.625 91.459 163.926C91.1439 164.241 90.8574 164.441 90.5996 164.527C90.2988 164.642 90.0195 164.749 89.7617 164.85C88.7161 165.952 88.0286 166.49 87.6992 166.461C87.6562 166.346 87.6061 166.174 87.5488 165.945C87.4915 165.716 87.4557 165.473 87.4414 165.215C87.4128 164.943 87.4199 164.671 87.4629 164.398C87.4915 164.112 87.5703 163.861 87.6992 163.646L88.4512 163.775ZM98.8281 158.365C98.7995 159.396 98.778 160.327 98.7637 161.158C98.7493 161.989 98.7064 162.691 98.6348 163.264C98.5202 164.495 98.2839 165.591 97.9258 166.551C97.5677 167.496 97.2812 168.126 97.0664 168.441C96.8659 168.757 96.7012 168.986 96.5723 169.129C96.4147 169.272 96.293 169.322 96.207 169.279C96.1211 169.222 96.0924 169.136 96.1211 169.021C96.1211 168.993 96.207 168.563 96.3789 167.732C96.5508 166.887 96.6582 166.071 96.7012 165.283C96.7441 164.495 96.7513 163.385 96.7227 161.953C96.694 160.507 96.7298 159.404 96.8301 158.645C96.8874 158.201 96.9805 157.742 97.1094 157.27C97.2526 156.797 97.4102 156.331 97.582 155.873C97.7539 155.415 97.9329 154.985 98.1191 154.584C98.3197 154.169 98.4987 153.803 98.6562 153.488C98.7852 153.288 98.8997 153.209 99 153.252C99.1003 153.295 99.1432 153.374 99.1289 153.488C99.1003 153.603 99.0645 153.875 99.0215 154.305C98.9928 154.72 98.9642 155.193 98.9355 155.723C98.9069 156.238 98.8783 156.747 98.8496 157.248C98.8353 157.749 98.8281 158.122 98.8281 158.365ZM116.102 167.496C116.102 167.253 115.586 166.895 114.555 166.422C113.509 165.935 112.986 165.34 112.986 164.639C112.986 164.137 113.094 163.572 113.309 162.941C113.538 162.297 113.81 161.688 114.125 161.115C114.182 161.015 114.268 160.943 114.383 160.9C114.512 160.857 114.633 160.836 114.748 160.836C114.877 160.836 114.992 160.857 115.092 160.9C115.192 160.943 115.249 161.015 115.264 161.115C115.264 161.316 115.421 161.516 115.736 161.717C116.066 161.917 116.395 162.139 116.725 162.383C117.054 162.612 117.29 162.877 117.434 163.178C117.577 163.507 117.648 163.994 117.648 164.639C117.648 165.584 117.527 166.551 117.283 167.539C117.04 168.499 116.589 169.688 115.93 171.105C114.884 173.297 113.466 175.044 111.676 176.348C111.017 176.763 110.372 177.078 109.742 177.293C109.055 177.522 108.317 177.637 107.529 177.637C105.682 177.637 104.264 176.949 103.275 175.574C102.43 174.4 102.008 172.896 102.008 171.062C102.008 170.246 102.18 169.179 102.523 167.861C102.867 166.587 103.225 165.484 103.598 164.553C103.999 163.593 104.342 162.784 104.629 162.125C104.715 161.967 104.837 161.731 104.994 161.416C105.152 161.087 105.352 160.664 105.596 160.148C105.768 159.833 105.918 159.547 106.047 159.289C106.19 159.031 106.305 158.802 106.391 158.602C106.605 158.215 106.77 158.029 106.885 158.043C107.042 158.072 107.085 158.236 107.014 158.537C106.942 158.895 106.849 159.203 106.734 159.461C105.717 161.81 105.016 163.45 104.629 164.381C103.956 166.085 103.619 167.403 103.619 168.334C103.619 170.096 104.163 171.356 105.252 172.115C106.054 172.645 107.092 172.91 108.367 172.91C110.659 172.91 112.578 172.266 114.125 170.977C115.443 169.874 116.102 168.714 116.102 167.496ZM117.906 153.404L117.52 155.939C117.362 156.985 117.204 157.773 117.047 158.303C116.904 158.919 116.753 159.227 116.596 159.227C116.481 159.227 116.302 159.434 116.059 159.85C115.572 160.666 115.314 161.203 115.285 161.461C115.128 161.561 114.949 161.611 114.748 161.611C114.548 161.626 114.347 161.576 114.146 161.461L114.684 160.451C115.156 159.563 115.414 159.069 115.457 158.969C115.801 158.31 115.987 157.823 116.016 157.508L116.059 156.541L116.209 154.264C116.309 153.333 116.431 152.531 116.574 151.857C116.689 151.27 116.825 150.654 116.982 150.01C117.226 149.236 117.405 148.706 117.52 148.42C117.777 147.804 118.128 147.117 118.572 146.357C118.687 146.271 118.78 146.25 118.852 146.293C118.938 146.336 118.923 146.601 118.809 147.088C118.708 147.575 118.615 148.055 118.529 148.527C118.458 148.986 118.4 149.372 118.357 149.688C118.057 151.621 117.906 152.86 117.906 153.404ZM117.906 154.113C117.906 155.059 118.1 155.768 118.486 156.24C118.844 156.727 119.267 156.971 119.754 156.971C119.84 156.956 119.983 156.598 120.184 155.896C120.398 155.209 120.577 154.794 120.721 154.65C121.064 154.521 121.351 154.672 121.58 155.102C121.795 155.56 121.917 155.932 121.945 156.219C121.945 157.293 121.716 158.353 121.258 159.398C120.613 160.773 119.747 161.461 118.658 161.461C118.042 161.461 117.512 161.217 117.068 160.73C116.624 160.243 116.345 159.706 116.23 159.119C116.116 158.503 116.059 157.73 116.059 156.799C116.059 156.412 116.123 156.004 116.252 155.574C116.367 155.145 116.517 154.758 116.703 154.414C116.889 154.07 117.097 153.798 117.326 153.598C117.541 153.397 117.734 153.326 117.906 153.383V154.113ZM135.609 163.715C135.667 164.001 135.645 164.316 135.545 164.66C135.445 165.004 135.28 165.391 135.051 165.82C134.836 166.236 134.542 166.622 134.17 166.98C133.926 167.21 133.733 167.324 133.59 167.324C133.504 167.324 133.303 167.202 132.988 166.959C132.688 166.701 132.408 166.472 132.15 166.271C131.907 166.057 131.692 165.863 131.506 165.691C131.334 165.52 131.248 165.376 131.248 165.262C131.434 164.875 131.57 164.581 131.656 164.381C131.943 163.736 132.186 163.228 132.387 162.855C132.602 162.483 132.931 161.932 133.375 161.201C133.633 161.416 133.948 161.674 134.32 161.975C134.707 162.261 135.001 162.533 135.201 162.791C135.416 163.049 135.552 163.357 135.609 163.715ZM142.098 161.609C141.84 166.107 140.536 169.974 138.188 173.211C135.867 176.348 133.081 177.93 129.83 177.959C128.14 177.887 126.801 177.329 125.812 176.283C124.824 175.252 124.301 173.812 124.244 171.965C124.23 169.043 125.189 165.87 127.123 162.447C127.495 161.76 127.717 161.545 127.789 161.803C127.861 162.046 127.854 162.297 127.768 162.555C126.493 165.076 125.841 167.253 125.812 169.086C125.87 170.461 126.357 171.507 127.273 172.223C128.204 172.939 129.429 173.326 130.947 173.383C132.809 173.383 134.6 172.889 136.318 171.9C138.023 170.769 139.212 169.258 139.885 167.367C140.143 166.708 140.271 165.835 140.271 164.746C140.271 164.331 140.264 163.808 140.25 163.178C140.25 162.533 140.25 162.075 140.25 161.803C140.307 161.015 140.493 160.148 140.809 159.203C141.124 158.243 141.382 157.549 141.582 157.119C141.797 156.689 141.976 156.475 142.119 156.475C142.219 156.475 142.262 156.589 142.248 156.818C142.234 157.033 142.212 157.456 142.184 158.086C142.155 158.716 142.126 159.891 142.098 161.609ZM146.094 162.361C146.065 162.906 146.008 163.4 145.922 163.844C145.836 164.273 145.721 164.646 145.578 164.961C145.435 165.262 145.249 165.491 145.02 165.648C144.805 165.792 144.54 165.842 144.225 165.799C144.239 164.682 144.354 163.128 144.568 161.137C144.798 159.132 145.134 156.919 145.578 154.498C145.807 153.796 146.273 152.557 146.975 150.781C147.046 150.609 147.118 150.538 147.189 150.566C147.275 150.595 147.318 150.667 147.318 150.781C147.275 151.655 147.096 153.324 146.781 155.787C146.466 158.251 146.273 159.941 146.201 160.857C146.13 161.774 146.094 162.275 146.094 162.361ZM146.094 163.113C146.094 164.059 146.287 164.768 146.674 165.24C147.032 165.727 147.454 165.971 147.941 165.971C148.027 165.956 148.171 165.598 148.371 164.896C148.586 164.209 148.765 163.794 148.908 163.65C149.252 163.521 149.538 163.672 149.768 164.102C149.982 164.56 150.104 164.932 150.133 165.219C150.133 166.293 149.904 167.353 149.445 168.398C148.801 169.773 147.934 170.461 146.846 170.461C146.23 170.461 145.7 170.217 145.256 169.73C144.812 169.243 144.533 168.706 144.418 168.119C144.303 167.503 144.246 166.73 144.246 165.799C144.246 165.412 144.311 165.004 144.439 164.574C144.554 164.145 144.704 163.758 144.891 163.414C145.077 163.07 145.285 162.798 145.514 162.598C145.729 162.397 145.922 162.326 146.094 162.383V163.113ZM159.479 159.311C159.464 159.697 159.314 160.399 159.027 161.416C158.755 162.433 158.39 163.543 157.932 164.746C157.488 165.949 157.094 166.859 156.75 167.475C156.406 168.09 156.027 168.563 155.611 168.893C155.21 169.208 154.551 169.501 153.635 169.773C152.732 170.031 152.002 170.21 151.443 170.311C150.899 170.396 150.555 170.439 150.412 170.439C150.269 170.425 150.183 170.368 150.154 170.268C150.126 170.167 150.169 170.038 150.283 169.881C150.441 169.637 150.835 169.322 151.465 168.936C152.109 168.535 152.854 168.04 153.699 167.453C154.544 166.852 155.146 166.329 155.504 165.885C155.862 165.441 156.263 164.775 156.707 163.887C157.165 162.999 157.574 162.104 157.932 161.201C158.304 160.299 158.569 159.683 158.727 159.354C158.884 159.024 159.056 158.867 159.242 158.881C159.4 158.91 159.479 159.053 159.479 159.311ZM157.674 150.18C157.674 149.865 157.939 149.184 158.469 148.139C159.013 147.079 159.364 146.549 159.521 146.549C159.837 146.42 160.295 146.663 160.896 147.279C161.498 147.881 161.82 148.354 161.863 148.697C161.863 149.156 161.613 149.814 161.111 150.674C160.61 151.533 160.245 151.963 160.016 151.963C159.93 151.92 159.629 151.734 159.113 151.404C158.612 151.061 158.24 150.803 157.996 150.631C157.781 150.488 157.674 150.337 157.674 150.18ZM164.184 162.361C164.155 162.906 164.098 163.4 164.012 163.844C163.926 164.273 163.811 164.646 163.668 164.961C163.525 165.262 163.339 165.491 163.109 165.648C162.895 165.792 162.63 165.842 162.314 165.799C162.329 164.682 162.443 163.128 162.658 161.137C162.887 159.132 163.224 156.919 163.668 154.498C163.897 153.796 164.363 152.557 165.064 150.781C165.136 150.609 165.208 150.538 165.279 150.566C165.365 150.595 165.408 150.667 165.408 150.781C165.365 151.655 165.186 153.324 164.871 155.787C164.556 158.251 164.363 159.941 164.291 160.857C164.219 161.774 164.184 162.275 164.184 162.361ZM164.184 162.383C164.184 162.898 164.191 163.278 164.205 163.521C164.205 163.88 164.284 164.338 164.441 164.896C164.613 165.34 164.9 165.706 165.301 165.992C165.688 166.279 166.203 166.422 166.848 166.422C167.736 166.422 168.438 166.178 168.953 165.691C169.641 165.047 170.106 164.674 170.35 164.574C170.507 164.503 170.686 164.488 170.887 164.531C171.102 164.574 171.324 164.589 171.553 164.574C171.811 164.574 172.054 164.281 172.283 163.693C172.512 163.106 172.67 162.791 172.756 162.748C172.842 162.691 172.942 162.676 173.057 162.705C173.386 162.82 173.615 162.877 173.744 162.877C173.988 162.877 174.202 162.712 174.389 162.383C174.46 162.268 174.582 161.967 174.754 161.48C174.897 161.065 175.012 160.857 175.098 160.857C175.212 160.857 175.27 160.986 175.27 161.244C175.27 162.218 174.99 163.163 174.432 164.08C173.844 164.997 173.25 165.455 172.648 165.455C172.262 166.014 172.04 166.322 171.982 166.379C171.596 166.823 171.245 167.045 170.93 167.045C170.615 166.988 170.35 166.959 170.135 166.959C169.934 166.959 169.712 167.016 169.469 167.131C169.182 167.245 168.638 167.833 167.836 168.893C167.034 169.938 166.167 170.461 165.236 170.461C164.219 170.461 163.475 170.01 163.002 169.107C162.558 168.219 162.336 167.124 162.336 165.82C162.579 164.76 162.844 163.901 163.131 163.242C163.403 162.555 163.675 162.211 163.947 162.211C164.005 162.211 164.083 162.268 164.184 162.383Z" fill="#18948A"/>
</svg>
