<svg width="27" height="32" viewBox="0 0 27 32" fill="none" xmlns="http://www.w3.org/2000/svg">
<g id="Layer 2">
<g id="Layer 1">
<path id="Vector" d="M16.0436 17.1396L21.7283 28.4036L22.8469 28.4796L16.4835 15.8118L9.47523 19.3325L15.8386 32L16.475 31.0112L10.8027 19.7724L16.0436 17.1396Z" fill="#EE233B"/>
<path id="Vector_2" d="M11.1823 19.8977L16.6529 30.7348L18.3032 28.1707L21.4013 28.3814L15.918 17.5191L11.1823 19.8977Z" fill="#EE233B"/>
<path id="Vector_3" d="M11.1823 19.8977L15.918 17.5191L21.4013 28.3814L21.7283 28.4036L16.0436 17.1396L10.8027 19.7724L16.475 31.0112L16.6529 30.7348L11.1823 19.8977Z" fill="#EE233B"/>
<path id="Vector_4" d="M11.1823 19.8977L15.918 17.5191L21.4013 28.3814L21.7283 28.4036L16.0436 17.1396L10.8027 19.7724L16.475 31.0112L16.6529 30.7348L11.1823 19.8977Z" fill="url(#paint0_linear_1_5888)"/>
<path id="Vector_5" d="M8.06854 17.1396L2.38386 28.4036L1.26506 28.4796L7.62865 15.8118L14.6369 19.3325L8.27358 32L7.6372 31.0112L13.3092 19.7724L8.06854 17.1396Z" fill="#EE233B"/>
<path id="Vector_6" d="M12.9299 19.8977L7.45904 30.7348L5.8087 28.1707L2.71061 28.3814L8.19391 17.5191L12.9299 19.8977Z" fill="#EE233B"/>
<path id="Vector_7" d="M12.9299 19.8977L8.19392 17.5191L2.71061 28.3814L2.38387 28.4036L8.06855 17.1396L13.3092 19.7724L7.6372 31.0112L7.45904 30.7348L12.9299 19.8977Z" fill="#EE233B"/>
<path id="Vector_8" d="M12.9299 19.8977L8.19392 17.5191L2.71061 28.3814L2.38387 28.4036L8.06855 17.1396L13.3092 19.7724L7.6372 31.0112L7.45904 30.7348L12.9299 19.8977Z" fill="url(#paint1_linear_1_5888)"/>
<path id="Vector_9" opacity="0.05" d="M25.1211 11.3987C24.7691 11.1212 24.5173 10.7363 24.404 10.3027C24.2906 9.86899 24.3219 9.41016 24.493 8.99588C25.0063 7.75587 24.2137 6.36482 22.8857 6.17249C22.4422 6.10808 22.0318 5.90067 21.7169 5.58176C21.402 5.26285 21.1998 4.84987 21.141 4.40557C20.9648 3.07537 19.5836 2.2667 18.3374 2.76402C17.9211 2.93008 17.4619 2.95573 17.0297 2.83708C16.5974 2.71843 16.2157 2.46196 15.9424 2.10662C15.1247 1.04281 13.523 1.03303 12.6936 2.08658C12.416 2.43873 12.0311 2.69065 11.5974 2.80406C11.1636 2.91747 10.7046 2.88616 10.2903 2.7149C9.05025 2.20169 7.6592 2.99424 7.46687 4.32199C7.40253 4.76562 7.19516 5.17612 6.87625 5.49115C6.55735 5.80617 6.14433 6.0085 5.69995 6.0674C4.36951 6.24385 3.56083 7.62488 4.0584 8.87125C4.2245 9.28759 4.25018 9.74677 4.13152 10.179C4.01287 10.6113 3.75638 10.993 3.401 11.2662C2.33719 12.084 2.32741 13.6857 3.38121 14.5149C3.73333 14.7924 3.98525 15.1772 4.09865 15.611C4.21206 16.0447 4.18077 16.5036 4.00953 16.9179C3.49631 18.1579 4.28837 19.5487 5.61637 19.7413C6.06001 19.8056 6.47054 20.013 6.78557 20.3319C7.10061 20.6508 7.30292 21.0638 7.36178 21.5082C7.53798 22.8382 8.91926 23.6469 10.1654 23.1498C10.5817 22.9836 11.0409 22.958 11.4732 23.0766C11.9055 23.1953 12.2872 23.4518 12.5604 23.8072C13.3781 24.871 14.9798 24.8808 15.8093 23.827C16.0867 23.4749 16.4716 23.2231 16.9053 23.1097C17.3389 22.9963 17.7978 23.0277 18.2121 23.1989C19.4521 23.7121 20.8431 22.9193 21.0355 21.5916C21.0998 21.1479 21.3073 20.7373 21.6263 20.4223C21.9453 20.1073 22.3584 19.905 22.8029 19.8462C24.1331 19.67 24.9417 18.2887 24.4444 17.0426C24.2783 16.6262 24.2526 16.167 24.3712 15.7348C24.4899 15.3025 24.7464 14.9208 25.1018 14.6476C26.1651 13.8299 26.1754 12.2294 25.1211 11.3987Z" fill="#231F20"/>
<path id="Vector_10" opacity="0.1" d="M24.9303 11.2684C24.5782 10.9909 24.3264 10.6061 24.213 10.1724C24.0996 9.73877 24.1308 9.27992 24.3019 8.86562C24.8151 7.6256 24.0226 6.23455 22.6948 6.04222C22.2512 5.97789 21.8407 5.77052 21.5257 5.45161C21.2107 5.1327 21.0083 4.71969 20.9494 4.2753C20.773 2.94511 19.392 2.13643 18.1456 2.63376C17.7292 2.79982 17.2701 2.82547 16.8378 2.70682C16.4056 2.58817 16.0238 2.3317 15.7506 1.97636C14.9336 0.912543 13.3324 0.902768 12.5017 1.95632C12.2242 2.30836 11.8394 2.56021 11.4057 2.67362C10.9721 2.78702 10.5132 2.75578 10.0989 2.58464C8.85889 2.07143 7.46809 2.86397 7.27551 4.19172C7.21143 4.6356 7.00418 5.04642 6.68526 5.36173C6.36633 5.67703 5.95317 5.87959 5.5086 5.9386C4.17864 6.1148 3.36997 7.49583 3.86705 8.74221C4.03315 9.15855 4.05882 9.61773 3.94017 10.05C3.82152 10.4823 3.56502 10.864 3.20965 11.1372C2.14583 11.9549 2.13606 13.5554 3.18985 14.3861C3.54192 14.6635 3.79377 15.0484 3.90714 15.4821C4.0205 15.9158 3.98918 16.3746 3.81793 16.7889C3.30472 18.0289 4.09751 19.4197 5.42526 19.6123C5.8689 19.6766 6.27943 19.8839 6.59446 20.2029C6.9095 20.5218 7.11181 20.9348 7.17067 21.3792C7.34687 22.7092 8.72815 23.5178 9.97428 23.0207C10.3906 22.8546 10.8498 22.8289 11.2821 22.9476C11.7144 23.0662 12.0961 23.3227 12.3693 23.6781C13.187 24.742 14.7875 24.7517 15.6181 23.6979C15.8956 23.3459 16.2804 23.094 16.7141 22.9807C17.1478 22.8673 17.6067 22.8986 18.021 23.0699C19.261 23.5831 20.652 22.7905 20.8446 21.4625C20.9088 21.0189 21.1162 20.6084 21.435 20.2934C21.7539 19.9783 22.1669 19.776 22.6113 19.7171C23.9415 19.5397 24.7501 18.1579 24.2528 16.9116C24.0868 16.4952 24.0611 16.036 24.1798 15.6038C24.2984 15.1715 24.5549 14.7898 24.9102 14.5166C25.974 13.6996 25.9838 12.0991 24.9303 11.2684Z" fill="#231F20"/>
<path id="Vector_11" opacity="0.14" d="M24.7391 11.1382C24.3871 10.8607 24.1352 10.4759 24.0219 10.0422C23.9085 9.60849 23.9398 9.14964 24.1111 8.73537C24.6243 7.49535 23.8315 6.1043 22.5037 5.91197C22.0601 5.84764 21.6496 5.64027 21.3346 5.32136C21.0195 5.00245 20.8172 4.58944 20.7583 4.14506C20.5821 2.81486 19.2008 2.00618 17.9547 2.50351C17.5384 2.66957 17.0792 2.69522 16.6469 2.57657C16.2147 2.45792 15.833 2.20145 15.5597 1.84611C14.742 0.782294 13.1403 0.772519 12.3109 1.82607C12.0333 2.17804 11.6485 2.42982 11.2148 2.54317C10.7811 2.65653 10.3223 2.62527 9.90804 2.45414C8.66802 1.94093 7.27697 2.73348 7.0844 4.06123C7.02007 4.50482 6.81274 4.9153 6.49388 5.23032C6.17502 5.54534 5.76206 5.7477 5.31772 5.80664C3.98753 5.98284 3.17885 7.36387 3.67593 8.61025C3.84212 9.02658 3.86783 9.48578 3.74917 9.91807C3.63052 10.3504 3.37397 10.7321 3.01853 11.0052C1.95496 11.823 1.94519 13.4234 2.99874 14.2541C3.35078 14.5316 3.60263 14.9164 3.71603 15.3501C3.82944 15.7838 3.7982 16.2426 3.62706 16.6569C3.11384 17.8969 3.90639 19.2877 5.23414 19.4803C5.67779 19.5446 6.08831 19.752 6.40335 20.0709C6.71838 20.3898 6.9207 20.8028 6.97955 21.2472C7.156 22.5772 8.53703 23.3859 9.78316 22.8888C10.1995 22.7227 10.6587 22.697 11.0909 22.8157C11.5232 22.9343 11.9049 23.1908 12.1781 23.5462C12.9959 24.61 14.5961 24.6198 15.4268 23.566C15.7043 23.2139 16.0892 22.9621 16.5229 22.8487C16.9566 22.7354 17.4155 22.7667 17.8298 22.9379C19.0699 23.4511 20.4607 22.6586 20.6532 21.3306C20.7175 20.8869 20.9249 20.4764 21.2438 20.1614C21.5627 19.8463 21.9758 19.644 22.4202 19.5852C23.7501 19.409 24.5588 18.0277 24.0617 16.7816C23.8956 16.3652 23.8699 15.906 23.9885 15.4738C24.1072 15.0415 24.3637 14.6598 24.7191 14.3866C25.7844 13.5693 25.7929 11.9689 24.7391 11.1382Z" fill="#231F20"/>
<path id="Vector_12" opacity="0.19" d="M24.548 11.0079C24.196 10.7304 23.9442 10.3456 23.8309 9.91189C23.7175 9.47821 23.7488 9.01939 23.92 8.60511C24.4332 7.36509 23.6406 5.97404 22.3126 5.78171C21.869 5.71737 21.4585 5.51 21.1435 5.19109C20.8284 4.87219 20.6261 4.45917 20.5672 4.01479C20.391 2.68459 19.0097 1.87592 17.7636 2.37325C17.3473 2.5393 16.8881 2.56496 16.4558 2.44631C16.0236 2.32766 15.6418 2.07119 15.3686 1.71584C14.5509 0.652029 12.9504 0.642254 12.1197 1.69605C11.8422 2.04802 11.4574 2.2998 11.0237 2.41315C10.59 2.52651 10.1312 2.49525 9.71693 2.32412C8.47691 1.81091 7.08586 2.60346 6.89353 3.93145C6.82916 4.37507 6.62178 4.78555 6.30288 5.10057C5.98397 5.41559 5.57098 5.61793 5.12661 5.67687C3.79642 5.85307 2.98774 7.23385 3.48507 8.48023C3.65113 8.89658 3.67678 9.35574 3.55813 9.788C3.43948 10.2203 3.18301 10.602 2.82767 10.8752C1.76385 11.6932 1.75408 13.2946 2.80787 14.1256C3.15984 14.4031 3.41162 14.7879 3.52498 15.2216C3.63833 15.6553 3.60707 16.1141 3.43595 16.5284C2.92347 17.7669 3.71626 19.158 5.04328 19.3505C5.48689 19.4149 5.89738 19.6223 6.21239 19.9412C6.52741 20.2601 6.72975 20.6731 6.78869 21.1175C6.96489 22.4474 8.34617 23.2561 9.59229 22.759C10.0086 22.5929 10.4678 22.5672 10.9001 22.6858C11.3324 22.8045 11.7141 23.061 11.9873 23.4164C12.805 24.4802 14.4055 24.49 15.2362 23.4362C15.5137 23.0842 15.8985 22.8323 16.3322 22.719C16.7659 22.6056 17.2247 22.6369 17.639 22.8081C18.879 23.3213 20.2698 22.5288 20.4624 21.2008C20.5267 20.7572 20.7341 20.3467 21.053 20.0316C21.3719 19.7166 21.7849 19.5143 22.2293 19.4554C23.5592 19.2792 24.3682 17.8979 23.8708 16.6518C23.7047 16.2354 23.679 15.7763 23.7977 15.344C23.9163 14.9117 24.1728 14.53 24.5282 14.2568C25.592 13.4391 25.6018 11.8386 24.548 11.0079Z" fill="#231F20"/>
<path id="Vector_13" opacity="0.24" d="M24.3572 10.8777C24.0052 10.6001 23.7534 10.2153 23.6401 9.78162C23.5267 9.34795 23.558 8.88914 23.7291 8.47485C24.2423 7.23484 23.4498 5.84379 22.122 5.65145C21.6785 5.58723 21.2681 5.38006 20.953 5.06139C20.638 4.74272 20.4355 4.32996 20.3764 3.88576C20.1999 2.55434 18.8194 1.74567 17.573 2.24299C17.1566 2.40905 16.6975 2.4347 16.2652 2.31605C15.833 2.1974 15.4512 1.94093 15.178 1.58559C14.3598 0.521777 12.7586 0.513223 11.9277 1.5658C11.6501 1.91776 11.2653 2.16954 10.8316 2.2829C10.3979 2.39626 9.93913 2.365 9.52485 2.19387C8.28629 1.68139 6.895 2.4732 6.70242 3.8012C6.63829 4.24501 6.431 4.65573 6.11208 4.97095C5.79315 5.28617 5.38003 5.48864 4.93551 5.54759C3.60555 5.72379 2.79688 7.10507 3.29396 8.35119C3.46006 8.76754 3.48573 9.22672 3.36708 9.65899C3.24843 10.0913 2.99193 10.473 2.63656 10.7462C1.57275 11.5629 1.56297 13.1634 2.61652 13.9941C2.96859 14.2716 3.22044 14.6564 3.3338 15.0901C3.44717 15.5238 3.41584 15.9826 3.2446 16.3969C2.73138 17.6369 3.52393 19.0277 4.85193 19.2203C5.29555 19.2846 5.70606 19.492 6.02109 19.8109C6.33611 20.1298 6.53844 20.5428 6.59734 20.9872C6.77354 22.3172 8.15481 23.1261 9.40094 22.6288C9.81728 22.4626 10.2765 22.4369 10.7087 22.5556C11.141 22.6742 11.5228 22.9308 11.7959 23.2862C12.6136 24.35 14.2154 24.3597 15.0448 23.306C15.3225 22.9541 15.7075 22.7025 16.1412 22.5894C16.5749 22.4762 17.0337 22.5077 17.4479 22.6791C18.6879 23.1923 20.0789 22.3998 20.2713 21.0718C20.3356 20.6281 20.543 20.2176 20.8619 19.9026C21.1808 19.5876 21.5938 19.3853 22.0382 19.3264C23.3684 19.1489 24.1771 17.7669 23.6797 16.5206C23.5137 16.1042 23.488 15.645 23.6067 15.2128C23.7253 14.7805 23.9818 14.3988 24.3371 14.1256C25.4009 13.3088 25.4107 11.7083 24.3572 10.8777Z" fill="#231F20"/>
<path id="Vector_14" opacity="0.29" d="M24.1661 10.7474C23.814 10.4699 23.5622 10.0851 23.4488 9.65141C23.3354 9.21774 23.3666 8.7589 23.5377 8.34459C24.0509 7.10457 23.2582 5.71352 21.9304 5.52119C21.4868 5.45686 21.0763 5.24949 20.7612 4.93058C20.4462 4.61167 20.2439 4.19866 20.185 3.75428C20.0085 2.42408 18.6275 1.6154 17.3814 2.11273C16.9651 2.27887 16.5059 2.30457 16.0736 2.18591C15.6413 2.06726 15.2596 1.81074 14.9864 1.45533C14.1687 0.391026 12.5684 0.381739 11.7378 1.43554C11.4602 1.7875 11.0754 2.03928 10.6417 2.15264C10.2081 2.26599 9.74924 2.23474 9.33496 2.06361C8.0947 1.5504 6.70389 2.34294 6.51131 3.67094C6.44703 4.11455 6.23971 4.52505 5.92084 4.84008C5.60197 5.15511 5.18899 5.35744 4.74464 5.41635C3.41469 5.59255 2.60601 6.97383 3.1031 8.21996C3.2692 8.6363 3.29487 9.09548 3.17622 9.52775C3.05756 9.96001 2.80107 10.3417 2.4457 10.6149C1.38212 11.4327 1.37235 13.0332 2.4259 13.8638C2.7779 14.1413 3.0297 14.5262 3.14306 14.9599C3.25642 15.3935 3.22514 15.8524 3.05397 16.2666C2.54076 17.5067 3.33331 18.8975 4.66106 19.09C5.10469 19.1544 5.51519 19.3617 5.83022 19.6806C6.14525 19.9996 6.34758 20.4126 6.40647 20.8569C6.58292 22.1871 7.96395 22.9958 9.21008 22.4985C9.62641 22.3323 10.0856 22.3066 10.5179 22.4253C10.9502 22.5439 11.3319 22.8005 11.6051 23.1559C12.4228 24.2197 14.023 24.2295 14.8537 23.1757C15.1312 22.8237 15.5161 22.5719 15.9497 22.4585C16.3834 22.3452 16.8422 22.3764 17.2565 22.5476C18.4968 23.0608 19.8876 22.2683 20.0802 20.9403C20.1444 20.4967 20.3518 20.0862 20.6706 19.7711C20.9895 19.4561 21.4025 19.2538 21.8468 19.1949C23.1768 19.0187 23.9855 17.6374 23.4884 16.3913C23.3222 15.9749 23.2965 15.5157 23.4152 15.0835C23.5338 14.6512 23.7904 14.2695 24.1458 13.9963C25.2098 13.1786 25.2196 11.5781 24.1661 10.7474Z" fill="#231F20"/>
<path id="Vector_15" opacity="0.34" d="M23.9759 10.6171C23.6239 10.3396 23.3721 9.95478 23.2588 9.52111C23.1454 9.08743 23.1767 8.62861 23.3479 8.21433C23.8611 6.97431 23.0685 5.58326 21.7405 5.39093C21.2969 5.3266 20.8864 5.11922 20.5714 4.80032C20.2563 4.48141 20.054 4.06839 19.9951 3.62401C19.8189 2.29382 18.4376 1.48514 17.1915 1.98247C16.7752 2.14861 16.316 2.1743 15.8837 2.05565C15.4514 1.93699 15.0697 1.68047 14.7965 1.32507C13.9788 0.261252 12.3771 0.251476 11.5476 1.30527C11.2701 1.65727 10.8853 1.90907 10.4516 2.02243C10.0179 2.13579 9.55911 2.10451 9.14483 1.93335C7.90481 1.42013 6.51376 2.21268 6.32143 3.54068C6.25706 3.98429 6.04967 4.39477 5.73077 4.70979C5.41187 5.02481 4.99888 5.22715 4.55451 5.28609C3.22334 5.46229 2.41466 6.84283 2.91199 8.0892C3.07805 8.50555 3.1037 8.96472 2.98505 9.39698C2.8664 9.82923 2.60993 10.211 2.25459 10.4842C1.19077 11.3024 1.181 12.9036 2.23455 13.7345C2.58651 14.0121 2.83829 14.3969 2.95165 14.8306C3.06501 15.2643 3.03375 15.7231 2.86262 16.1373C2.34941 17.3774 3.14196 18.7682 4.46971 18.9607C4.91332 19.0251 5.32381 19.2325 5.63882 19.5514C5.95384 19.8703 6.15618 20.2833 6.21512 20.7277C6.39181 22.0569 7.77308 22.8656 9.01946 22.3682C9.4358 22.2021 9.89498 22.1765 10.3272 22.2951C10.7595 22.4138 11.1412 22.6703 11.4144 23.0256C12.2322 24.0894 13.8339 24.0992 14.6633 23.0454C14.9408 22.6934 15.3257 22.4416 15.7593 22.3282C16.193 22.2148 16.6519 22.2461 17.0661 22.4174C18.3062 22.9306 19.697 22.138 19.8895 20.81C19.9538 20.3664 20.1612 19.9559 20.4801 19.6408C20.799 19.3258 21.2121 19.1235 21.6565 19.0646C22.9864 18.8884 23.7951 17.5071 23.298 16.261C23.1319 15.8447 23.1062 15.3855 23.2248 14.9532C23.3435 14.5209 23.6 14.1392 23.9554 13.866C25.019 13.0483 25.0287 11.4478 23.9759 10.6171Z" fill="#231F20"/>
<path id="Vector_16" opacity="0.39" d="M23.7838 10.4869C23.4319 10.2093 23.1801 9.82451 23.0667 9.39084C22.9534 8.95718 22.9846 8.49836 23.1558 8.08408C23.669 6.84406 22.8764 5.45301 21.5487 5.26068C21.1052 5.1964 20.6947 4.98919 20.3797 4.67047C20.0646 4.35176 19.8622 3.93896 19.803 3.49474C19.6258 2.16356 18.2458 1.35489 16.9994 1.85222C16.5831 2.01832 16.1239 2.04399 15.6916 1.92534C15.2594 1.80668 14.8776 1.55019 14.6044 1.19482C13.7867 0.131 12.1862 0.122202 11.3555 1.17502C11.078 1.52705 10.6932 1.77888 10.2595 1.89224C9.82584 2.0056 9.36701 1.9743 8.95273 1.80309C7.71271 1.28988 6.32191 2.08243 6.12933 3.41043C6.06515 3.85419 5.85784 4.26486 5.53892 4.58003C5.22 4.8952 4.8069 5.09763 4.36242 5.15657C3.03198 5.33204 2.22379 6.71331 2.72087 7.95944C2.88701 8.37578 2.91271 8.83497 2.79405 9.26725C2.6754 9.69952 2.41888 10.0813 2.06347 10.3544C0.999655 11.1721 0.98988 12.7726 2.04368 13.6033C2.39594 13.8809 2.64791 14.266 2.76128 14.6999C2.87465 15.1338 2.84321 15.5929 2.67175 16.0073C2.15951 17.2461 2.95108 18.6369 4.27835 18.8295C4.72197 18.8939 5.13248 19.1012 5.44751 19.4201C5.76253 19.739 5.96486 20.1521 6.02376 20.5964C6.19996 21.9266 7.58123 22.7353 8.82736 22.238C9.2437 22.0718 9.7029 22.0461 10.1352 22.1648C10.5674 22.2835 10.9492 22.54 11.2224 22.8954C12.0401 23.9592 13.6406 23.969 14.4712 22.9152C14.7489 22.5632 15.1339 22.3115 15.5678 22.1983C16.0016 22.0851 16.4605 22.1166 16.8748 22.2881C18.1148 22.8013 19.5058 22.0087 19.6982 20.6807C19.7625 20.2371 19.9699 19.8266 20.2888 19.5116C20.6077 19.1966 21.0207 18.9942 21.4651 18.9353C22.7953 18.7591 23.604 17.3779 23.1066 16.1317C22.9406 15.7154 22.9149 15.2562 23.0336 14.824C23.1522 14.3917 23.4087 14.01 23.764 13.7367C24.8279 12.918 24.8376 11.3176 23.7838 10.4869Z" fill="#231F20"/>
<path id="Vector_17" opacity="0.43" d="M23.593 10.3566C23.2409 10.0791 22.9891 9.69432 22.8757 9.26064C22.7623 8.82696 22.7935 8.36812 22.9646 7.95381C23.4779 6.7138 22.6853 5.32275 21.3576 5.13041C20.9139 5.06608 20.5034 4.85871 20.1884 4.5398C19.8734 4.22089 19.671 3.80788 19.6122 3.3635C19.4357 2.0333 18.0547 1.22463 16.8085 1.72195C16.3922 1.88805 15.933 1.91373 15.5008 1.79507C15.0685 1.67642 14.6868 1.41993 14.4136 1.06455C13.5956 3.54648e-06 11.9953 -0.00903875 11.1647 1.04476C10.8872 1.39676 10.5023 1.64856 10.0686 1.76192C9.63497 1.87528 9.17615 1.844 8.76187 1.67283C7.52185 1.15962 6.13104 1.95217 5.93847 3.28016C5.87419 3.72377 5.66686 4.13427 5.348 4.4493C5.02913 4.76433 4.61615 4.96667 4.1718 5.02557C2.84184 5.20178 2.03317 6.58305 2.53025 7.82918C2.69639 8.24552 2.72209 8.70471 2.60343 9.13698C2.48478 9.56926 2.22826 9.95099 1.87285 10.2242C0.808057 11.0419 0.799015 12.6424 1.85257 13.473C2.20463 13.7505 2.45648 14.1354 2.56985 14.569C2.68321 15.0027 2.65189 15.4616 2.48064 15.8759C1.96743 17.1159 2.76022 18.5069 4.08797 18.6993C4.5316 18.7636 4.94211 18.971 5.25713 19.2899C5.57216 19.6088 5.77449 20.0218 5.83338 20.4662C6.00983 21.7964 7.39086 22.605 8.63699 22.1077C9.05333 21.9416 9.51252 21.9159 9.94479 22.0345C10.3771 22.1532 10.7588 22.4097 11.032 22.7651C11.8497 23.8289 13.4502 23.8387 14.2809 22.7849C14.5584 22.4329 14.9432 22.1811 15.3769 22.0678C15.8106 21.9544 16.2694 21.9857 16.6837 22.1568C17.9239 22.6701 19.3147 21.8775 19.5073 20.5495C19.5716 20.1059 19.7789 19.6954 20.0977 19.3803C20.4166 19.0653 20.8296 18.863 21.274 18.8041C22.6042 18.6279 23.4129 17.2466 22.9158 16.0005C22.7496 15.5842 22.7239 15.125 22.8426 14.6927C22.9612 14.2604 23.2178 13.8787 23.5732 13.6055C24.6358 12.7878 24.6465 11.1873 23.593 10.3566Z" fill="#231F20"/>
<path id="Vector_18" opacity="0.48" d="M23.4019 10.2264C23.0498 9.9489 22.7979 9.56407 22.6846 9.13038C22.5712 8.69668 22.6025 8.23783 22.7738 7.82357C23.287 6.58355 22.4945 5.1925 21.1665 5.00017C20.7228 4.93583 20.3123 4.72846 19.9973 4.40955C19.6823 4.09065 19.4799 3.67763 19.421 3.23325C19.2448 1.90305 17.8636 1.09438 16.6174 1.59171C16.2011 1.75785 15.7419 1.78354 15.3096 1.66489C14.8774 1.54623 14.4956 1.28971 14.2224 0.934305C13.4047 -0.129511 11.8055 -0.139286 10.9745 0.914509C10.697 1.26651 10.3122 1.51831 9.87852 1.63167C9.44484 1.74503 8.98602 1.71375 8.57174 1.54258C7.33074 1.0301 5.94018 1.82192 5.74736 3.14991C5.68303 3.59354 5.47566 4.00405 5.15675 4.31907C4.83784 4.6341 4.42483 4.83643 3.98044 4.89533C2.65025 5.07153 1.84157 6.45182 2.3389 7.6982C2.50496 8.11455 2.53061 8.57372 2.41196 9.00597C2.29331 9.43823 2.03684 9.81996 1.6815 10.0932C0.617682 10.9116 0.607907 12.5126 1.66146 13.3435C2.01342 13.6211 2.2652 14.0059 2.37856 14.4396C2.49192 14.8732 2.46066 15.3321 2.28953 15.7463C1.7773 16.9849 2.56911 18.3779 3.89686 18.569C4.34046 18.6334 4.75092 18.8408 5.06594 19.1597C5.38095 19.4786 5.5833 19.8916 5.64227 20.3359C5.81848 21.6661 7.19951 22.4748 8.44588 21.9775C8.86222 21.8114 9.3214 21.7857 9.75367 21.9044C10.1859 22.023 10.5677 22.2795 10.8409 22.6349C11.6586 23.6987 13.2591 23.7085 14.0897 22.6547C14.3672 22.3026 14.7521 22.0508 15.1858 21.9374C15.6194 21.8241 16.0783 21.8554 16.4926 22.0266C17.7326 22.5398 19.1234 21.7473 19.316 20.4193C19.3803 19.9756 19.5877 19.5651 19.9066 19.2501C20.2255 18.9351 20.6385 18.7327 21.0829 18.6738C22.4128 18.4976 23.2215 17.1164 22.7244 15.8702C22.5583 15.4539 22.5326 14.9947 22.6512 14.5624C22.7699 14.1302 23.0264 13.7484 23.3818 13.4753C24.4459 12.6575 24.4557 11.057 23.4019 10.2264Z" fill="#231F20"/>
<path id="Vector_19" opacity="0.53" d="M23.2107 10.0961C22.8588 9.81858 22.607 9.43373 22.4937 9.00005C22.3803 8.56637 22.4117 8.10755 22.5829 7.6933C23.0961 6.45328 22.3036 5.06248 20.9756 4.8699C20.532 4.80562 20.1216 4.59836 19.8065 4.2796C19.4915 3.96084 19.289 3.54799 19.2299 3.10372C19.0537 1.77352 17.6725 0.964846 16.4263 1.46217C16.01 1.62831 15.5508 1.65401 15.1185 1.53535C14.6862 1.4167 14.3045 1.16018 14.0313 0.804773C13.2136 -0.259043 11.6119 -0.268818 10.7825 0.784978C10.5049 1.13698 10.1201 1.38878 9.68643 1.50214C9.25275 1.6155 8.79393 1.58422 8.37965 1.41305C7.13963 0.899839 5.74883 1.69239 5.55625 3.02038C5.49188 3.46393 5.28452 3.87435 4.96567 4.18933C4.64681 4.5043 4.23388 4.70662 3.78958 4.76555C2.45938 4.94175 1.65071 6.32303 2.14803 7.56915C2.31417 7.98549 2.33987 8.44468 2.22121 8.87696C2.10256 9.30924 1.84604 9.69096 1.49063 9.96414C0.426573 10.7814 0.417042 12.3819 1.47059 13.2125C1.8228 13.4901 2.07474 13.8751 2.18811 14.309C2.30148 14.7429 2.27007 15.2019 2.09867 15.6163C1.58545 16.8563 2.378 18.2474 3.706 18.4397C4.14948 18.504 4.55988 18.7112 4.87489 19.0299C5.1899 19.3487 5.39231 19.7615 5.45141 20.2057C5.62761 21.5359 7.00889 22.3445 8.25501 21.8472C8.67136 21.6811 9.13053 21.6555 9.56279 21.7741C9.99504 21.8928 10.3768 22.1493 10.65 22.5046C11.4677 23.5684 13.0682 23.5782 13.8989 22.5244C14.1765 22.1724 14.5615 21.9207 14.9953 21.8075C15.429 21.6942 15.8879 21.7257 16.3022 21.8971C17.5422 22.4103 18.9332 21.6177 19.1256 20.2897C19.19 19.8461 19.3973 19.4356 19.7162 19.1206C20.0351 18.8056 20.4481 18.6033 20.8925 18.5443C22.2227 18.3681 23.0314 16.9868 22.534 15.7407C22.3679 15.3244 22.3422 14.8652 22.4609 14.4329C22.5795 14.0006 22.836 13.6189 23.1914 13.3457C24.2548 12.5273 24.2645 10.9268 23.2107 10.0961Z" fill="#231F20"/>
<path id="Vector_20" d="M19.0513 20.2985C18.859 21.6263 17.4679 22.4181 16.2279 21.9058C15.8136 21.7346 15.3548 21.7033 14.9211 21.8166C14.4874 21.93 14.1025 22.1819 13.8251 22.5339C12.9942 23.5877 11.3939 23.5779 10.5762 22.5141C10.303 22.1587 9.92129 21.9022 9.48901 21.7835C9.05674 21.6649 8.59755 21.6906 8.18121 21.8567C6.93483 22.3538 5.5538 21.5451 5.3776 20.2152C5.31874 19.7708 5.11643 19.3577 4.8014 19.0388C4.48636 18.7199 4.07583 18.5126 3.63219 18.4483C2.30419 18.2557 1.51238 16.8649 2.02486 15.6249C2.19625 15.2105 2.22764 14.7515 2.11428 14.3177C2.00091 13.8838 1.74898 13.4989 1.39679 13.2213C0.342991 12.3904 0.352766 10.7902 1.41658 9.97244C1.77196 9.69924 2.02845 9.31751 2.1471 8.88525C2.26575 8.45298 2.24008 7.9938 2.07398 7.57746C1.57665 6.33108 2.38533 4.95005 3.71553 4.77361C4.15991 4.71471 4.57292 4.51238 4.89183 4.19736C5.21074 3.88233 5.41811 3.47182 5.48244 3.0282C5.67502 1.70044 7.06582 0.90863 8.30584 1.42111C8.72015 1.59225 9.17899 1.62349 9.61267 1.51009C10.0463 1.39668 10.4312 1.14483 10.7087 0.792791C11.5396 -0.260761 13.1398 -0.250985 13.9575 0.81283C14.2308 1.16817 14.6125 1.42464 15.0447 1.54329C15.477 1.66194 15.9362 1.63629 16.3525 1.47023C17.5989 0.972904 18.9799 1.78158 19.1561 3.11178C19.215 3.55613 19.4174 3.96911 19.7324 4.28798C20.0474 4.60684 20.4579 4.81417 20.9015 4.87845C22.2295 5.07102 23.0213 6.46207 22.5089 7.70209C22.3377 8.11637 22.3064 8.57519 22.4198 9.00887C22.5331 9.44255 22.7849 9.82738 23.1369 10.1049C24.1907 10.9358 24.181 12.5361 23.1171 13.3538C22.7617 13.627 22.5052 14.0087 22.3866 14.441C22.2679 14.8732 22.2936 15.3324 22.4597 15.7488C22.9571 16.9951 22.1484 18.3762 20.8182 18.5524C20.3737 18.6113 19.9606 18.8137 19.6417 19.1289C19.3228 19.4441 19.1155 19.8548 19.0513 20.2985Z" fill="url(#paint2_linear_1_5888)"/>
<path id="Vector_21" d="M12.1537 19.9405C16.6702 19.9405 20.3316 16.2791 20.3316 11.7626C20.3316 7.24605 16.6702 3.58467 12.1537 3.58467C7.63718 3.58467 3.9758 7.24605 3.9758 11.7626C3.9758 16.2791 7.63718 19.9405 12.1537 19.9405Z" fill="#875121"/>
<path id="Vector_22" d="M12.1537 19.9405C16.6702 19.9405 20.3316 16.2791 20.3316 11.7626C20.3316 7.24605 16.6702 3.58467 12.1537 3.58467C7.63718 3.58467 3.9758 7.24605 3.9758 11.7626C3.9758 16.2791 7.63718 19.9405 12.1537 19.9405Z" fill="url(#paint3_linear_1_5888)"/>
<path id="Vector_23" d="M12.056 19.2914C16.2158 19.2914 19.588 15.9192 19.588 11.7594C19.588 7.5996 16.2158 4.22741 12.056 4.22741C7.89615 4.22741 4.52396 7.5996 4.52396 11.7594C4.52396 15.9192 7.89615 19.2914 12.056 19.2914Z" fill="#633618"/>
<path id="Vector_24" d="M8.72839 16.5755V14.0478H10.8257V9.23171H9.02849V7.1818L9.32762 7.12486C10.2744 6.94499 10.9279 6.70622 11.5831 6.30054L11.672 6.24555H13.7818V14.0478H15.5788V16.5755H8.72839Z" fill="url(#paint4_linear_1_5888)"/>
<path id="Vector_25" d="M9.09595 14.4156H11.1945V8.86416H9.3963V7.48606C10.4257 7.29055 11.1046 7.02906 11.7766 6.61311H13.414V14.4156H15.211V16.208H9.09595V14.4156Z" fill="url(#paint5_linear_1_5888)"/>
</g>
</g>
<defs>
<linearGradient id="paint0_linear_1_5888" x1="3.37167" y1="12.3765" x2="21.9565" y2="29.2472" gradientUnits="userSpaceOnUse">
<stop stop-color="#875121"/>
<stop offset="0.08" stop-color="#895421"/>
<stop offset="0.13" stop-color="#915C23"/>
<stop offset="0.17" stop-color="#9D6B25"/>
<stop offset="0.21" stop-color="#AF7F28"/>
<stop offset="0.24" stop-color="#C6992C"/>
<stop offset="0.25" stop-color="#C89B2C"/>
<stop offset="0.33" stop-color="#C99D2E"/>
<stop offset="0.35" stop-color="#CCA235"/>
<stop offset="0.37" stop-color="#D2AC40"/>
<stop offset="0.39" stop-color="#DBBA51"/>
<stop offset="0.41" stop-color="#E6CD67"/>
<stop offset="0.42" stop-color="#FDF294"/>
<stop offset="0.48" stop-color="#F7EA8C"/>
<stop offset="0.58" stop-color="#E8D375"/>
<stop offset="0.69" stop-color="#CFAE51"/>
<stop offset="0.79" stop-color="#B6892D"/>
<stop offset="1" stop-color="#C89B2C"/>
</linearGradient>
<linearGradient id="paint1_linear_1_5888" x1="20.7402" y1="12.3765" x2="2.15537" y2="29.2472" gradientUnits="userSpaceOnUse">
<stop stop-color="#875121"/>
<stop offset="0.08" stop-color="#895421"/>
<stop offset="0.13" stop-color="#915C23"/>
<stop offset="0.17" stop-color="#9D6B25"/>
<stop offset="0.21" stop-color="#AF7F28"/>
<stop offset="0.24" stop-color="#C6992C"/>
<stop offset="0.25" stop-color="#C89B2C"/>
<stop offset="0.33" stop-color="#C99D2E"/>
<stop offset="0.35" stop-color="#CCA235"/>
<stop offset="0.37" stop-color="#D2AC40"/>
<stop offset="0.39" stop-color="#DBBA51"/>
<stop offset="0.41" stop-color="#E6CD67"/>
<stop offset="0.42" stop-color="#FDF294"/>
<stop offset="0.48" stop-color="#F7EA8C"/>
<stop offset="0.58" stop-color="#E8D375"/>
<stop offset="0.69" stop-color="#CFAE51"/>
<stop offset="0.79" stop-color="#B6892D"/>
<stop offset="1" stop-color="#C89B2C"/>
</linearGradient>
<linearGradient id="paint2_linear_1_5888" x1="2.64438" y1="18.3586" x2="21.8749" y2="4.97889" gradientUnits="userSpaceOnUse">
<stop stop-color="#875121"/>
<stop offset="0.08" stop-color="#895421"/>
<stop offset="0.13" stop-color="#915C23"/>
<stop offset="0.17" stop-color="#9D6B25"/>
<stop offset="0.21" stop-color="#AF7F28"/>
<stop offset="0.24" stop-color="#C6992C"/>
<stop offset="0.25" stop-color="#C89B2C"/>
<stop offset="0.33" stop-color="#C99D2E"/>
<stop offset="0.35" stop-color="#CCA235"/>
<stop offset="0.37" stop-color="#D2AC40"/>
<stop offset="0.39" stop-color="#DBBA51"/>
<stop offset="0.41" stop-color="#E6CD67"/>
<stop offset="0.42" stop-color="#FDF294"/>
<stop offset="0.48" stop-color="#F7EA8C"/>
<stop offset="0.58" stop-color="#E8D375"/>
<stop offset="0.69" stop-color="#CFAE51"/>
<stop offset="0.79" stop-color="#B6892D"/>
<stop offset="1" stop-color="#C89B2C"/>
</linearGradient>
<linearGradient id="paint3_linear_1_5888" x1="4.47459" y1="9.34462" x2="18.2768" y2="13.6906" gradientUnits="userSpaceOnUse">
<stop stop-color="#B6892D"/>
<stop offset="0.01" stop-color="#AC7D2A"/>
<stop offset="0.04" stop-color="#9B6926"/>
<stop offset="0.07" stop-color="#905B23"/>
<stop offset="0.11" stop-color="#895322"/>
<stop offset="0.18" stop-color="#875121"/>
<stop offset="0.27" stop-color="#895421"/>
<stop offset="0.33" stop-color="#915C23"/>
<stop offset="0.38" stop-color="#9D6B25"/>
<stop offset="0.42" stop-color="#AF7F28"/>
<stop offset="0.46" stop-color="#C89B2C"/>
<stop offset="0.48" stop-color="#C99D2E"/>
<stop offset="0.49" stop-color="#DBBA51"/>
<stop offset="0.5" stop-color="#FDF294"/>
<stop offset="0.55" stop-color="#F7EA8C"/>
<stop offset="0.62" stop-color="#E8D375"/>
<stop offset="0.71" stop-color="#CFAE51"/>
<stop offset="0.79" stop-color="#B6892D"/>
<stop offset="1" stop-color="#C89B2C"/>
</linearGradient>
<linearGradient id="paint4_linear_1_5888" x1="6.69582" y1="9.51471" x2="18.7497" y2="14.5268" gradientUnits="userSpaceOnUse">
<stop stop-color="#B6892D"/>
<stop offset="0.01" stop-color="#AC7D2A"/>
<stop offset="0.04" stop-color="#9B6926"/>
<stop offset="0.07" stop-color="#905B23"/>
<stop offset="0.11" stop-color="#895322"/>
<stop offset="0.18" stop-color="#875121"/>
<stop offset="0.27" stop-color="#895421"/>
<stop offset="0.33" stop-color="#915C23"/>
<stop offset="0.38" stop-color="#9D6B25"/>
<stop offset="0.42" stop-color="#AF7F28"/>
<stop offset="0.46" stop-color="#C89B2C"/>
<stop offset="0.48" stop-color="#C99D2E"/>
<stop offset="0.49" stop-color="#DBBA51"/>
<stop offset="0.5" stop-color="#FDF294"/>
<stop offset="0.55" stop-color="#F7EA8C"/>
<stop offset="0.62" stop-color="#E8D375"/>
<stop offset="0.71" stop-color="#CFAE51"/>
<stop offset="0.79" stop-color="#B6892D"/>
<stop offset="1" stop-color="#C89B2C"/>
</linearGradient>
<linearGradient id="paint5_linear_1_5888" x1="3.26317" y1="6.71918" x2="17.3056" y2="14.9623" gradientUnits="userSpaceOnUse">
<stop stop-color="#875121"/>
<stop offset="0.08" stop-color="#895421"/>
<stop offset="0.13" stop-color="#915C23"/>
<stop offset="0.17" stop-color="#9D6B25"/>
<stop offset="0.21" stop-color="#AF7F28"/>
<stop offset="0.24" stop-color="#C6992C"/>
<stop offset="0.25" stop-color="#C89B2C"/>
<stop offset="0.33" stop-color="#C99D2E"/>
<stop offset="0.35" stop-color="#CCA235"/>
<stop offset="0.37" stop-color="#D2AC40"/>
<stop offset="0.39" stop-color="#DBBA51"/>
<stop offset="0.41" stop-color="#E6CD67"/>
<stop offset="0.42" stop-color="#FDF294"/>
<stop offset="0.48" stop-color="#F7EA8C"/>
<stop offset="0.58" stop-color="#E8D375"/>
<stop offset="0.69" stop-color="#CFAE51"/>
<stop offset="0.79" stop-color="#B6892D"/>
<stop offset="1" stop-color="#C89B2C"/>
</linearGradient>
</defs>
</svg>
