<svg width="26" height="32" viewBox="0 0 26 32" fill="none" xmlns="http://www.w3.org/2000/svg">
<g id="Layer 2">
<g id="Layer 1">
<path id="Vector" d="M15.4698 17.3029L21.092 28.4429L22.1982 28.5181L15.9047 15.9897L8.9735 19.4716L15.2671 32L15.8964 31.0218L10.2866 19.9067L15.4698 17.3029Z" fill="#EE233B"/>
<path id="Vector_2" d="M10.662 20.0309L16.0724 30.7485L17.7046 28.2126L20.7686 28.4209L15.3456 17.6782L10.662 20.0309Z" fill="#EE233B"/>
<path id="Vector_3" d="M10.662 20.0309L15.3456 17.6782L20.7686 28.4209L21.092 28.4429L15.4698 17.3029L10.2866 19.9067L15.8964 31.0218L16.0724 30.7485L10.662 20.0309Z" fill="#EE233B"/>
<path id="Vector_4" d="M10.662 20.0309L15.3456 17.6782L20.7686 28.4209L21.092 28.4429L15.4698 17.3029L10.2866 19.9067L15.8964 31.0218L16.0724 30.7485L10.662 20.0309Z" fill="url(#paint0_linear_1_5946)"/>
<path id="Vector_5" d="M7.58229 17.3029L1.96016 28.4429L0.853916 28.5181L7.14747 15.9897L14.0786 19.4716L7.78507 32L7.15569 31.0218L12.7655 19.9067L7.58229 17.3029Z" fill="#EE233B"/>
<path id="Vector_6" d="M12.3901 20.0309L6.97974 30.7485L5.34755 28.2126L2.28356 28.4209L7.70652 17.6782L12.3901 20.0309Z" fill="#EE233B"/>
<path id="Vector_7" d="M12.3901 20.0309L7.70652 17.6782L2.28356 28.4209L1.96017 28.4429L7.58229 17.3029L12.7655 19.9067L7.15569 31.0218L6.97974 30.7485L12.3901 20.0309Z" fill="#EE233B"/>
<path id="Vector_8" d="M12.3901 20.0309L7.70652 17.6782L2.28356 28.4209L1.96017 28.4429L7.58229 17.3029L12.7655 19.9067L7.15569 31.0218L6.97974 30.7485L12.3901 20.0309Z" fill="url(#paint1_linear_1_5946)"/>
<path id="Vector_9" opacity="0.05" d="M24.2381 11.2732C23.89 10.9988 23.6409 10.6182 23.5287 10.1893C23.4166 9.7604 23.4475 9.30661 23.6167 8.89687C24.1243 7.67049 23.3405 6.29475 22.0273 6.10454C21.5886 6.041 21.1826 5.83597 20.871 5.52061C20.5594 5.20524 20.3593 4.79678 20.3011 4.35731C20.1266 3.04175 18.7608 2.24197 17.5284 2.73383C17.1166 2.89806 16.6625 2.92343 16.235 2.80608C15.8075 2.68874 15.43 2.43509 15.1597 2.08366C14.351 1.03155 12.7684 1.02188 11.9469 2.06384C11.6724 2.41181 11.292 2.66074 10.8632 2.77285C10.4345 2.88495 9.98084 2.85411 9.57121 2.685C8.34484 2.17744 6.96934 2.96126 6.77888 4.2744C6.71531 4.71313 6.51027 5.11911 6.19491 5.43067C5.87955 5.74224 5.47112 5.94235 5.03165 6.00061C3.71489 6.17511 2.91511 7.54094 3.40793 8.7736C3.5722 9.18536 3.59759 9.63949 3.48025 10.067C3.3629 10.4945 3.10923 10.872 2.75777 11.1422C1.70566 11.951 1.69599 13.535 2.73819 14.3551C3.08638 14.6295 3.33546 15.0101 3.44758 15.4391C3.55969 15.868 3.52872 16.3218 3.35935 16.7315C2.85203 17.9581 3.63464 19.3336 4.94779 19.5241C5.38655 19.5876 5.79256 19.7927 6.10412 20.1081C6.41569 20.4235 6.61578 20.832 6.67399 21.2715C6.84849 22.5868 8.21432 23.3866 9.44674 22.895C9.8585 22.7307 10.3126 22.7053 10.7402 22.8226C11.1677 22.94 11.5452 23.1937 11.8154 23.5452C12.6241 24.5973 14.207 24.6069 15.0285 23.5647C15.3029 23.2166 15.6835 22.9675 16.1125 22.8554C16.5414 22.7433 16.9952 22.7743 17.4049 22.9436C18.6312 23.4512 20.007 22.6671 20.1974 21.3539C20.261 20.9152 20.466 20.5092 20.7814 20.1976C21.0967 19.8861 21.5052 19.686 21.9447 19.6277C23.2602 19.4535 24.06 18.0874 23.5684 16.855C23.404 16.4432 23.3786 15.9891 23.496 15.5616C23.6133 15.134 23.867 14.7565 24.2186 14.4864C25.2704 13.6776 25.2801 12.0948 24.2381 11.2732Z" fill="#231F20"/>
<path id="Vector_10" opacity="0.1" d="M24.0489 11.1444C23.7007 10.87 23.4516 10.4894 23.3395 10.0605C23.2274 9.63156 23.2584 9.17776 23.4277 8.76805C23.9353 7.54168 23.1515 6.16594 21.8381 5.97572C21.3993 5.91209 20.9933 5.707 20.6818 5.39161C20.3702 5.07621 20.1701 4.66774 20.1119 4.22825C19.9376 2.91269 18.5715 2.11291 17.3391 2.60477C16.9274 2.769 16.4732 2.79437 16.0457 2.67702C15.6182 2.55968 15.2407 2.30603 14.9705 1.9546C14.1618 0.902493 12.5789 0.892825 11.7574 1.93478C11.4829 2.28295 11.1023 2.53203 10.6734 2.64419C10.2445 2.75634 9.79074 2.72544 9.381 2.55619C8.15463 2.04862 6.77888 2.83245 6.58867 4.14559C6.52535 4.58456 6.32042 4.99085 6.00505 5.30269C5.68967 5.61453 5.2811 5.81487 4.84144 5.87324C3.52588 6.0475 2.7261 7.41334 3.21796 8.64599C3.38219 9.05776 3.40756 9.51188 3.29021 9.93937C3.17287 10.3669 2.91922 10.7444 2.56779 11.0146C1.51593 11.8233 1.50626 13.4062 2.54821 14.2277C2.89638 14.5022 3.14546 14.8828 3.25762 15.3117C3.36977 15.7406 3.33888 16.1944 3.16962 16.6041C2.66205 17.8305 3.44588 19.206 4.75902 19.3964C5.19778 19.46 5.60379 19.6651 5.91536 19.9805C6.22692 20.2959 6.42701 20.7044 6.48522 21.1439C6.65949 22.458 8.02435 23.2578 9.25701 22.7662C9.66877 22.6019 10.1229 22.5765 10.5504 22.6939C10.9779 22.8112 11.3554 23.0649 11.6256 23.4164C12.4344 24.4685 14.0172 24.4781 14.8388 23.4359C15.1132 23.0877 15.4938 22.8387 15.9227 22.7265C16.3516 22.6144 16.8054 22.6454 17.2151 22.8148C18.4415 23.3214 19.8192 22.5385 20.0084 21.2251C20.072 20.7864 20.2771 20.3804 20.5925 20.0688C20.9079 19.7572 21.3164 19.5571 21.7559 19.4989C23.0712 19.3247 23.871 17.9581 23.3794 16.7254C23.2151 16.3137 23.1897 15.8596 23.307 15.432C23.4244 15.0045 23.6781 14.627 24.0295 14.3568C25.0817 13.5488 25.0913 11.9659 24.0489 11.1444Z" fill="#231F20"/>
<path id="Vector_11" opacity="0.14" d="M23.8601 11.0156C23.512 10.7411 23.263 10.3605 23.1509 9.93162C23.0387 9.50271 23.0697 9.04894 23.239 8.63922C23.7465 7.41285 22.9627 6.03711 21.6493 5.84689C21.2106 5.78323 20.8046 5.57812 20.4931 5.26273C20.1815 4.94734 19.9814 4.53889 19.9231 4.09942C19.7488 2.78386 18.3828 1.98408 17.1504 2.47594C16.7386 2.64017 16.2845 2.66554 15.857 2.54819C15.4295 2.43085 15.052 2.1772 14.7817 1.82577C13.973 0.773663 12.3889 0.763995 11.5686 1.80595C11.2941 2.15405 10.9135 2.40305 10.4846 2.51516C10.0557 2.62727 9.60196 2.59636 9.19224 2.42711C7.96586 1.91955 6.59036 2.70337 6.39991 4.01652C6.33621 4.45523 6.13109 4.86118 5.81571 5.17272C5.50032 5.48427 5.0919 5.68439 4.65243 5.74272C3.33688 5.91698 2.5371 7.28281 3.02895 8.51547C3.19323 8.92723 3.21862 9.38136 3.10127 9.80887C2.98392 10.2364 2.73025 10.6139 2.37879 10.8841C1.32668 11.6928 1.31701 13.2757 2.35921 14.0972C2.70737 14.3717 2.95643 14.7523 3.06854 15.1812C3.18065 15.6101 3.1497 16.0639 2.98037 16.4736C2.47281 17.7 3.25663 19.0755 4.57002 19.2659C5.00878 19.3295 5.41479 19.5346 5.72635 19.85C6.03792 20.1654 6.23801 20.5739 6.29622 21.0134C6.47048 22.3287 7.83656 23.1285 9.06897 22.6369C9.48073 22.4726 9.93487 22.4472 10.3624 22.5645C10.7899 22.6819 11.1674 22.9355 11.4376 23.287C12.2463 24.3392 13.8292 24.3488 14.6507 23.3066C14.9252 22.9584 15.3057 22.7093 15.7347 22.5972C16.1636 22.4851 16.6174 22.5161 17.0271 22.6855C18.2535 23.193 19.6292 22.4092 19.8194 21.0958C19.8831 20.6571 20.0881 20.2511 20.4035 19.9395C20.7189 19.628 21.1274 19.4279 21.5669 19.3696C22.8825 19.1954 23.6822 17.8293 23.1904 16.5969C23.0261 16.1851 23.0007 15.731 23.118 15.3034C23.2354 14.8759 23.489 14.4984 23.8405 14.2282C24.8927 13.42 24.9023 11.8371 23.8601 11.0156Z" fill="#231F20"/>
<path id="Vector_12" opacity="0.19" d="M23.6714 10.8868C23.3232 10.6123 23.0741 10.2318 22.962 9.80285C22.8498 9.37394 22.8807 8.92015 23.0499 8.5104C23.5575 7.28403 22.7737 5.90829 21.4605 5.71807C21.0218 5.65445 20.6158 5.44936 20.3043 5.13396C19.9927 4.81856 19.7926 4.41009 19.7343 3.9706C19.5598 2.65504 18.194 1.85527 16.9614 2.34712C16.5496 2.51135 16.0955 2.53672 15.668 2.41938C15.2405 2.30203 14.8629 2.04839 14.5927 1.69696C13.784 0.644848 12.2011 0.63518 11.3798 1.67738C11.1053 2.02549 10.7247 2.27451 10.2957 2.38662C9.86679 2.49873 9.41299 2.4678 9.00322 2.29854C7.77685 1.79098 6.40135 2.5748 6.2109 3.88818C6.14727 4.32693 5.94218 4.73292 5.62678 5.04448C5.31138 5.35604 4.90291 5.55614 4.46342 5.61439C3.14811 5.78865 2.34833 7.15424 2.83994 8.3869C3.00421 8.79866 3.02961 9.25279 2.91226 9.68029C2.79491 10.1078 2.54124 10.4853 2.18978 10.7555C1.13767 11.5645 1.128 13.1483 2.1702 13.9701C2.51839 14.2445 2.76747 14.6251 2.87959 15.054C2.99171 15.483 2.96073 15.9368 2.79136 16.3465C2.2838 17.5728 3.06786 18.9483 4.381 19.1388C4.81975 19.2024 5.22574 19.4075 5.5373 19.7229C5.84886 20.0383 6.04896 20.4468 6.10721 20.8863C6.28147 22.2016 7.64754 23.0014 8.87996 22.5098C9.29172 22.3454 9.74586 22.32 10.1734 22.4374C10.6009 22.5547 10.9784 22.8084 11.2486 23.1599C12.0573 24.212 13.6414 24.2217 14.4617 23.1795C14.7362 22.8314 15.1168 22.5823 15.5457 22.4702C15.9746 22.3581 16.4284 22.3891 16.8381 22.5583C18.0645 23.0659 19.4402 22.2821 19.6307 20.9687C19.6942 20.53 19.8992 20.1239 20.2146 19.8124C20.53 19.5008 20.9384 19.3007 21.3779 19.2425C22.6934 19.0682 23.4932 17.7022 23.0014 16.4697C22.8371 16.0579 22.8118 15.6038 22.9292 15.1763C23.0466 14.7488 23.3003 14.3713 23.6518 14.1011C24.7036 13.2912 24.7133 11.7083 23.6714 10.8868Z" fill="#231F20"/>
<path id="Vector_13" opacity="0.24" d="M23.4823 10.7579C23.1342 10.4835 22.8851 10.1029 22.773 9.674C22.6608 9.24508 22.6918 8.79128 22.8612 8.38158C23.3687 7.1552 22.5847 5.77946 21.2715 5.58925C20.833 5.52568 20.4271 5.32077 20.1156 5.00561C19.804 4.69045 19.6038 4.28226 19.5453 3.84298C19.3711 2.52622 18.005 1.72644 16.7738 2.21829C16.362 2.38252 15.9079 2.40789 15.4804 2.29055C15.0529 2.17321 14.6754 1.91956 14.4052 1.56813C13.5952 0.516019 12.0124 0.50756 11.1906 1.54855C10.9161 1.89664 10.5355 2.14565 10.1066 2.25776C9.67771 2.36987 9.22394 2.33896 8.81422 2.16971C7.5893 1.66287 6.21162 2.44597 6.02189 3.75936C5.95851 4.19826 5.75355 4.60446 5.43818 4.91621C5.1228 5.22796 4.71426 5.42822 4.27466 5.48653C2.9591 5.66079 2.15933 7.02686 2.65118 8.25928C2.81541 8.67105 2.84078 9.12516 2.72344 9.55266C2.60609 9.98016 2.35244 10.3577 2.00101 10.6279C0.948905 11.4357 0.939237 13.0185 1.98192 13.8401C2.33009 14.1145 2.57917 14.4951 2.69132 14.924C2.80348 15.3529 2.77258 15.8067 2.60332 16.2164C2.09576 17.4428 2.87958 18.8183 4.19272 19.0088C4.63147 19.0724 5.03746 19.2775 5.34902 19.5929C5.66058 19.9083 5.86068 20.3167 5.91893 20.7562C6.09343 22.0716 7.45926 22.8716 8.69192 22.3797C9.10368 22.2154 9.55781 22.1901 9.98532 22.3074C10.4128 22.4247 10.7904 22.6784 11.0606 23.0299C11.8693 24.082 13.4521 24.0917 14.2734 23.0495C14.5481 22.7017 14.9286 22.453 15.3574 22.3411C15.7862 22.2292 16.2398 22.2603 16.6493 22.4295C17.8757 22.9371 19.2512 22.1532 19.4417 20.8399C19.5052 20.4011 19.7103 19.9951 20.0257 19.6835C20.3411 19.372 20.7496 19.1719 21.1891 19.1137C22.5044 18.9382 23.3042 17.5714 22.8126 16.3387C22.6483 15.927 22.6229 15.4728 22.7402 15.0453C22.8576 14.6178 23.1113 14.2403 23.4628 13.9701C24.5149 13.1623 24.5245 11.5795 23.4823 10.7579Z" fill="#231F20"/>
<path id="Vector_14" opacity="0.29" d="M23.2933 10.6291C22.945 10.3548 22.6958 9.97424 22.5835 9.54533C22.4712 9.11642 22.502 8.66258 22.6712 8.25276C23.1788 7.02638 22.3949 5.65064 21.0816 5.46043C20.6428 5.39676 20.2369 5.19166 19.9253 4.87627C19.6138 4.56088 19.4137 4.15243 19.3554 3.71295C19.1811 2.3974 17.815 1.59762 16.5826 2.08947C16.1709 2.25379 15.7167 2.2792 15.2892 2.16185C14.8617 2.0445 14.4842 1.7908 14.214 1.43931C13.4062 0.386717 11.8234 0.377532 11.0018 1.41973C10.7273 1.76786 10.3468 2.01689 9.91785 2.129C9.48895 2.24111 9.03517 2.21018 8.62545 2.04089C7.39908 1.53333 6.02334 2.31715 5.83312 3.63054C5.76941 4.06941 5.56417 4.47548 5.24859 4.78705C4.933 5.09862 4.52434 5.29865 4.08469 5.35674C2.76913 5.531 1.96935 6.89708 2.46121 8.12949C2.62548 8.54125 2.65087 8.99538 2.53352 9.42289C2.41617 9.8504 2.1625 10.2279 1.81104 10.4981C0.759898 11.3068 0.749263 12.8897 1.79243 13.7112C2.14055 13.9857 2.38959 14.3663 2.5017 14.7952C2.61381 15.2241 2.58287 15.6779 2.41359 16.0876C1.90603 17.314 2.68985 18.6895 4.00323 18.8799C4.44198 18.9436 4.84797 19.1487 5.15953 19.4641C5.47109 19.7795 5.67119 20.1879 5.72944 20.6274C5.9037 21.943 7.26977 22.7428 8.50219 22.2509C8.91394 22.0866 9.36808 22.0612 9.7956 22.1785C10.2231 22.2959 10.6006 22.5496 10.8708 22.9011C11.6795 23.9532 13.2636 23.9628 14.0839 22.9206C14.3584 22.5727 14.7388 22.3237 15.1676 22.2116C15.5963 22.0995 16.05 22.1304 16.4596 22.2995C17.686 22.807 19.0617 22.0232 19.2519 20.7098C19.3155 20.2711 19.5206 19.8651 19.836 19.5535C20.1514 19.242 20.5599 19.0419 20.9994 18.9836C22.3149 18.8094 23.1147 17.4433 22.6229 16.2109C22.4586 15.7991 22.4331 15.345 22.5505 14.9175C22.6678 14.4899 22.9215 14.1124 23.273 13.8422C24.3259 13.0335 24.3355 11.4507 23.2933 10.6291Z" fill="#231F20"/>
<path id="Vector_15" opacity="0.34" d="M23.1046 10.5003C22.7564 10.2259 22.5073 9.84528 22.3952 9.41637C22.283 8.98747 22.3139 8.53367 22.4832 8.12393C22.9907 6.89756 22.2069 5.52182 20.8938 5.3316C20.4548 5.26817 20.0486 5.06316 19.7369 4.74775C19.4251 4.43234 19.2249 4.02376 19.1666 3.58413C18.9921 2.26857 17.6263 1.46879 16.3936 1.96065C15.9818 2.12492 15.5277 2.15031 15.1002 2.03296C14.6727 1.91562 14.2952 1.66194 14.025 1.31048C13.2163 0.258373 11.6334 0.248705 10.8121 1.2909C10.5376 1.63905 10.1569 1.88809 9.72799 2.0002C9.29905 2.11231 8.84523 2.08137 8.43548 1.91207C7.20911 1.4045 5.83361 2.18833 5.64315 3.50171C5.57952 3.94045 5.37443 4.34644 5.05904 4.658C4.74364 4.96956 4.33517 5.16966 3.89568 5.22791C2.58133 5.40218 1.78155 6.76752 2.27316 8.00018C2.43747 8.41194 2.46289 8.86608 2.34554 9.2936C2.22819 9.72111 1.97449 10.0986 1.623 10.3688C0.570888 11.178 0.56122 12.7616 1.60342 13.5834C1.95123 13.8579 2.19999 14.2384 2.31192 14.6671C2.42385 15.0958 2.39285 15.5493 2.22361 15.9588C1.71605 17.1852 2.50012 18.5607 3.81326 18.7511C4.252 18.8147 4.65799 19.0198 4.96955 19.3352C5.28111 19.6506 5.48121 20.0591 5.53946 20.4986C5.71469 21.8141 7.08173 22.6139 8.31439 22.1221C8.72614 21.9578 9.18028 21.9324 9.6078 22.0497C10.0353 22.167 10.4128 22.4207 10.683 22.7722C11.4917 23.8243 13.0746 23.834 13.8961 22.7918C14.1706 22.4437 14.5512 22.1947 14.9801 22.0825C15.409 21.9704 15.8628 22.0014 16.2725 22.1707C17.4989 22.6782 18.8746 21.8944 19.0651 20.581C19.1285 20.1426 19.3332 19.7368 19.6482 19.4253C19.9631 19.1138 20.3711 18.9135 20.8101 18.8548C22.1257 18.6805 22.9255 17.3145 22.4336 16.0821C22.2694 15.6703 22.244 15.2162 22.3614 14.7887C22.4787 14.3612 22.7324 13.9836 23.0838 13.7134C24.1369 12.9047 24.1456 11.3218 23.1046 10.5003Z" fill="#231F20"/>
<path id="Vector_16" opacity="0.39" d="M22.9156 10.3715C22.5674 10.097 22.3183 9.71645 22.2062 9.28753C22.0941 8.85861 22.125 8.40481 22.2944 7.9951C22.802 6.76873 22.0179 5.39299 20.7048 5.20277C20.2662 5.13919 19.8603 4.93425 19.5487 4.61904C19.2372 4.30383 19.037 3.89558 18.9786 3.45627C18.8041 2.13974 17.4382 1.33996 16.2058 1.83182C15.7941 1.99613 15.3399 2.02154 14.9124 1.90419C14.4849 1.78684 14.1073 1.53315 13.8372 1.18165C13.0275 0.129544 11.4456 0.120843 10.6241 1.16208C10.3496 1.5102 9.96898 1.75923 9.54008 1.87135C9.11118 1.98346 8.6574 1.95252 8.24768 1.78324C7.02131 1.27567 5.64557 2.0595 5.45511 3.37288C5.39168 3.81174 5.1867 4.21788 4.87133 4.52959C4.55596 4.84129 4.14745 5.04151 3.70788 5.09981C2.39281 5.27335 1.59255 6.63942 2.0844 7.87183C2.24865 8.28362 2.274 8.73777 2.15661 9.16528C2.03922 9.59279 1.7855 9.9703 1.43399 10.2405C0.382125 11.0492 0.372457 12.6321 1.41441 13.4536C1.76284 13.7281 2.01209 14.1089 2.12426 14.5381C2.23642 14.9672 2.20537 15.4213 2.03582 15.8312C1.52898 17.0563 2.31208 18.4318 3.62546 18.6223C4.06421 18.6859 4.4702 18.891 4.78175 19.2064C5.09331 19.5218 5.29342 19.9303 5.35166 20.3698C5.52617 21.6853 6.892 22.4851 8.12466 21.9932C8.53642 21.829 8.99055 21.8036 9.41806 21.9209C9.84556 22.0383 10.2231 22.2919 10.4933 22.6434C11.302 23.6955 12.8861 23.7052 13.7062 22.663C13.9808 22.3151 14.3614 22.0662 14.7903 21.9543C15.2192 21.8424 15.6729 21.8734 16.0825 22.0428C17.3089 22.5504 18.6844 21.7665 18.8749 20.4531C18.9385 20.0144 19.1435 19.6084 19.4589 19.2968C19.7743 18.9852 20.1828 18.7852 20.6223 18.7269C21.9377 18.5527 22.7374 17.1866 22.2458 15.9542C22.0815 15.5424 22.0561 15.0883 22.1734 14.6608C22.2908 14.2333 22.5445 13.8557 22.896 13.5856C23.9481 12.7759 23.9578 11.193 22.9156 10.3715Z" fill="#231F20"/>
<path id="Vector_17" opacity="0.43" d="M22.7266 10.2426C22.3784 9.96817 22.1294 9.58758 22.0173 9.15868C21.9052 8.72977 21.9361 8.276 22.1054 7.86628C22.613 6.63991 21.8291 5.26417 20.5158 5.07395C20.077 5.01032 19.671 4.80524 19.3595 4.48984C19.0479 4.17444 18.8478 3.76597 18.7896 3.32648C18.6153 2.01092 17.2492 1.21114 16.0168 1.703C15.605 1.86731 15.1509 1.89272 14.7234 1.77537C14.2959 1.65802 13.9183 1.40433 13.6482 1.05283C12.8394 -1.2815e-06 11.2566 -0.00894403 10.435 1.03325C10.1606 1.38138 9.77997 1.63041 9.35107 1.74252C8.92217 1.85464 8.46839 1.8237 8.05867 1.65442C6.8323 1.14685 5.45656 1.93068 5.26634 3.24406C5.20272 3.68281 4.99763 4.08879 4.68223 4.40035C4.36683 4.71191 3.95836 4.91201 3.51887 4.97026C2.20331 5.14453 1.40354 6.5106 1.89539 7.74301C2.0597 8.15477 2.08512 8.60891 1.96777 9.03643C1.85042 9.46395 1.59672 9.84147 1.24523 10.1116C0.193358 10.9204 0.183449 12.5032 1.22565 13.3248C1.57377 13.5992 1.82281 13.9798 1.93492 14.4087C2.04703 14.8376 2.01609 15.2914 1.84681 15.7011C1.33925 16.9275 2.12307 18.3033 3.43645 18.4935C3.87518 18.5571 4.28115 18.7622 4.5927 19.0776C4.90425 19.393 5.10437 19.8015 5.16266 20.2409C5.33692 21.5565 6.70299 22.3563 7.93541 21.8644C8.34717 21.7001 8.8013 21.6747 9.22882 21.792C9.65634 21.9094 10.0339 22.1631 10.304 22.5146C11.1128 23.5667 12.6956 23.5764 13.5172 22.5342C13.7916 22.186 14.1722 21.937 14.6011 21.8249C15.03 21.7128 15.4838 21.7437 15.8935 21.913C17.1199 22.4206 18.4954 21.6367 18.6859 20.3234C18.7495 19.8846 18.9546 19.4786 19.27 19.1671C19.5854 18.8555 19.9938 18.6554 20.4333 18.5972C21.7489 18.4229 22.5487 17.0568 22.0568 15.8244C21.8925 15.4126 21.8671 14.9585 21.9844 14.531C22.1018 14.1035 22.3555 13.7259 22.707 13.4558C23.7588 12.6471 23.7688 11.0642 22.7266 10.2426Z" fill="#231F20"/>
<path id="Vector_18" opacity="0.48" d="M22.5378 10.1138C22.1896 9.83938 21.9405 9.4588 21.8284 9.0299C21.7162 8.60099 21.7471 8.1472 21.9164 7.73746C22.424 6.51108 21.6401 5.13534 20.327 4.94513C19.8882 4.8815 19.4823 4.67641 19.1707 4.36101C18.8591 4.04561 18.659 3.63714 18.6008 3.19765C18.4263 1.8821 17.0604 1.08232 15.8278 1.57417C15.416 1.73844 14.9619 1.76384 14.5344 1.64649C14.1069 1.52914 13.7294 1.27547 13.4592 0.924007C12.6504 -0.128101 11.0676 -0.137769 10.246 0.904429C9.97159 1.25259 9.59099 1.50164 9.16208 1.61376C8.73316 1.72587 8.27938 1.69492 7.86966 1.52559C6.64329 1.01803 5.26779 1.80185 5.07734 3.11524C5.01375 3.554 4.80867 3.96001 4.49327 4.27157C4.17786 4.58314 3.76937 4.78323 3.32986 4.84144C2.01455 5.0157 1.21477 6.38081 1.70638 7.61346C1.87069 8.02522 1.89611 8.47936 1.77876 8.90688C1.66141 9.3344 1.40771 9.71192 1.05622 9.9821C0.00410831 10.7915 -0.00555962 12.3749 1.03664 13.1967C1.38483 13.4711 1.63391 13.8517 1.74603 14.2806C1.85814 14.7095 1.82717 15.1633 1.6578 15.573C1.1512 16.798 1.93358 18.1756 3.24744 18.3646C3.68619 18.4283 4.09218 18.6334 4.40374 18.9488C4.7153 19.2642 4.9154 19.6726 4.97365 20.1121C5.14791 21.4277 6.51398 22.2275 7.7464 21.7356C8.15816 21.5713 8.6123 21.5459 9.03981 21.6632C9.46733 21.7806 9.84486 22.0343 10.115 22.3858C10.9238 23.4379 12.5078 23.4475 13.3282 22.4053C13.6026 22.0572 13.9832 21.8082 14.4121 21.6961C14.841 21.584 15.2948 21.6149 15.7045 21.7842C16.9309 22.2917 18.3066 21.5079 18.4969 20.1945C18.5605 19.7558 18.7656 19.3498 19.081 19.0383C19.3964 18.7267 19.8048 18.5266 20.2443 18.4683C21.5599 18.2941 22.3597 16.928 21.8678 15.6956C21.7036 15.2838 21.6782 14.8297 21.7955 14.4022C21.9129 13.9747 22.1665 13.5972 22.518 13.3269C23.5701 12.5182 23.5797 10.9354 22.5378 10.1138Z" fill="#231F20"/>
<path id="Vector_19" opacity="0.53" d="M22.3488 9.98499C22.0008 9.71045 21.7519 9.32979 21.6399 8.90088C21.528 8.47196 21.5591 8.01823 21.7286 7.60863C22.2362 6.38225 21.4521 5.00675 20.1389 4.8163C19.7001 4.7529 19.294 4.548 18.9823 4.23273C18.6705 3.91746 18.4702 3.50905 18.4118 3.06955C18.2373 1.75327 16.8705 0.95349 15.639 1.44534C15.2273 1.60966 14.7731 1.63507 14.3456 1.51772C13.9181 1.40037 13.5406 1.14667 13.2704 0.795178C12.4617 -0.256931 10.8788 -0.265873 10.0573 0.7756C9.78279 1.12373 9.4022 1.37276 8.9733 1.48487C8.54439 1.59698 8.09062 1.56605 7.6809 1.39676C6.45453 0.889198 5.07878 1.67302 4.88833 2.98641C4.82494 3.42509 4.62009 3.8311 4.30491 4.14275C3.98973 4.4544 3.58144 4.65465 3.14206 4.71309C1.82651 4.88736 1.02673 6.25343 1.51834 7.48584C1.68269 7.8976 1.70813 8.35175 1.59078 8.77927C1.47342 9.2068 1.2197 9.58433 0.868176 9.85448C-0.184658 10.6627 -0.193359 12.2456 0.847632 13.0671C1.19601 13.3416 1.44522 13.7224 1.55739 14.1515C1.66955 14.5806 1.63853 15.0346 1.46904 15.4445C0.961471 16.6708 1.7453 18.0466 3.05844 18.2368C3.49722 18.3002 3.90332 18.505 4.21505 18.8203C4.52678 19.1355 4.72711 19.5438 4.78561 19.9833C4.96011 21.2988 6.32594 22.0986 7.55836 21.6068C7.97013 21.4425 8.42424 21.4172 8.85174 21.5345C9.27924 21.6519 9.65677 21.9055 9.92699 22.2569C10.7357 23.309 12.3183 23.3187 13.1399 22.2765C13.4144 21.9287 13.7949 21.6799 14.2237 21.5679C14.6524 21.4559 15.106 21.4869 15.5155 21.6561C16.7419 22.1636 18.1174 21.3798 18.3078 20.0664C18.3715 19.6277 18.5766 19.2217 18.892 18.9101C19.2074 18.5986 19.6158 18.3985 20.0553 18.3402C21.3706 18.166 22.1704 16.7999 21.6788 15.5675C21.5145 15.1557 21.4891 14.7016 21.6064 14.2741C21.7238 13.8465 21.9775 13.469 22.329 13.1988C23.3813 12.3894 23.3907 10.8065 22.3488 9.98499Z" fill="#231F20"/>
<path id="Vector_20" d="M18.2358 20.0751C18.0456 21.3883 16.6699 22.1714 15.4435 21.6648C15.0338 21.4954 14.58 21.4644 14.1511 21.5765C13.7221 21.6887 13.3415 21.9377 13.0671 22.2859C12.2454 23.3281 10.6627 23.3185 9.854 22.2664C9.58383 21.9149 9.2063 21.6612 8.77878 21.5438C8.35126 21.4265 7.89712 21.4519 7.48537 21.6162C6.25271 22.1078 4.88688 21.308 4.71261 19.9927C4.65441 19.5532 4.45432 19.1447 4.14275 18.8293C3.83118 18.5139 3.42517 18.3088 2.98641 18.2452C1.67303 18.0548 0.88993 16.6793 1.39677 15.4529C1.56627 15.0431 1.59732 14.5892 1.4852 14.1601C1.37308 13.731 1.12392 13.3503 0.775607 13.0758C-0.266592 12.254 -0.256924 10.6714 0.795185 9.86269C1.14665 9.59249 1.40032 9.21496 1.51767 8.78746C1.63501 8.35995 1.60962 7.90582 1.44535 7.49406C0.953496 6.2614 1.75327 4.89557 3.06883 4.72106C3.50832 4.66282 3.91679 4.46271 4.23219 4.15115C4.54759 3.8396 4.75268 3.43361 4.8163 2.99486C5.00676 1.68172 6.38226 0.89862 7.60863 1.40546C8.01838 1.57472 8.47217 1.60562 8.90107 1.49346C9.32998 1.3813 9.71056 1.13222 9.985 0.784056C10.8068 -0.257901 12.3894 -0.248234 13.1981 0.803875C13.4683 1.15531 13.8459 1.40895 14.2734 1.5263C14.7009 1.64364 15.155 1.61827 15.5668 1.45404C16.7994 0.962187 18.1652 1.76196 18.3395 3.07752C18.3978 3.51698 18.5979 3.92542 18.9094 4.24078C19.221 4.55614 19.627 4.76118 20.0657 4.82475C21.3791 5.01521 22.1622 6.39095 21.6554 7.61732C21.4861 8.02704 21.4551 8.48082 21.5672 8.90972C21.6794 9.33862 21.9284 9.71922 22.2765 9.99369C23.3187 10.8155 23.309 12.3981 22.2569 13.2068C21.9054 13.477 21.6517 13.8545 21.5344 14.282C21.417 14.7096 21.4425 15.1637 21.6068 15.5754C22.0986 16.8081 21.2989 18.1739 19.9833 18.3482C19.5437 18.4065 19.1351 18.6067 18.8197 18.9184C18.5043 19.2301 18.2993 19.6363 18.2358 20.0751Z" fill="url(#paint2_linear_1_5946)"/>
<path id="Vector_21" d="M11.4142 19.721C15.881 19.721 19.5021 16.1 19.5021 11.6331C19.5021 7.1663 15.881 3.54521 11.4142 3.54521C6.94732 3.54521 3.32624 7.1663 3.32624 11.6331C3.32624 16.1 6.94732 19.721 11.4142 19.721Z" fill="#875121"/>
<path id="Vector_22" d="M11.4142 19.721C15.881 19.721 19.5021 16.1 19.5021 11.6331C19.5021 7.1663 15.881 3.54521 11.4142 3.54521C6.94732 3.54521 3.32624 7.1663 3.32624 11.6331C3.32624 16.1 6.94732 19.721 11.4142 19.721Z" fill="url(#paint3_linear_1_5946)"/>
<path id="Vector_23" d="M11.3247 19.0931C15.4426 19.0931 18.7808 15.7549 18.7808 11.637C18.7808 7.5191 15.4426 4.18088 11.3247 4.18088C7.20683 4.18088 3.86861 7.5191 3.86861 11.637C3.86861 15.7549 7.20683 19.0931 11.3247 19.0931Z" fill="#471F02"/>
<path id="Vector_24" d="M11.4639 16.9381C9.95261 16.9381 8.71005 16.4282 7.87063 15.4638L7.67317 15.2366L9.11731 13.2585L9.42861 13.5558C10.0232 14.1233 10.6352 14.411 11.2474 14.411C11.5978 14.411 12.4133 14.3385 12.4133 13.6549C12.4133 13.2682 12.4133 12.6862 10.2402 12.6862H9.86294V10.3753H10.2402C12.104 10.3753 12.104 9.74934 12.104 9.48106C12.104 9.19416 12.0215 8.81276 11.3107 8.81276C10.8007 8.81276 10.3882 9.01168 9.78802 9.54656L9.49653 9.80662L7.89867 7.8832L8.18001 7.6415C9.20311 6.76269 10.2586 6.33633 11.4093 6.33633C13.6612 6.33633 15.0602 7.4786 15.0602 9.31719C15.0602 10.1892 14.671 10.9013 13.9261 11.4081C14.8525 11.8985 15.3695 12.7391 15.3695 13.7978C15.3695 15.6465 13.7635 16.9381 11.4639 16.9381Z" fill="url(#paint4_linear_1_5946)"/>
<path id="Vector_25" d="M8.15511 15.216L9.16806 13.8285C9.74814 14.3822 10.4515 14.7882 11.2467 14.7882C12.1728 14.7882 12.7899 14.3841 12.7899 13.6549C12.7899 12.822 12.3031 12.3089 10.2395 12.3089V10.7524C11.9444 10.7524 12.4805 10.2342 12.4805 9.48202C12.4805 8.81421 12.0551 8.43644 11.31 8.43644C10.6352 8.43644 10.1237 8.74218 9.53665 9.26618L8.42484 7.92791C9.29882 7.17719 10.2533 6.71313 11.4084 6.71313C13.3792 6.71313 14.6819 7.64826 14.6819 9.3167C14.6819 10.2939 14.1214 10.9943 13.1 11.4243V11.484C14.1968 11.797 14.9913 12.5716 14.9913 13.7975C14.9913 15.5641 13.3719 16.5609 11.4625 16.5609C9.92723 16.5609 8.85144 16.0161 8.15511 15.216Z" fill="url(#paint5_linear_1_5946)"/>
</g>
</g>
<defs>
<linearGradient id="paint0_linear_1_5946" x1="2.93735" y1="12.5922" x2="21.3177" y2="29.2773" gradientUnits="userSpaceOnUse">
<stop stop-color="#875121"/>
<stop offset="0.08" stop-color="#895421"/>
<stop offset="0.13" stop-color="#915C23"/>
<stop offset="0.17" stop-color="#9D6B25"/>
<stop offset="0.21" stop-color="#AF7F28"/>
<stop offset="0.24" stop-color="#C6992C"/>
<stop offset="0.25" stop-color="#C89B2C"/>
<stop offset="0.33" stop-color="#C99D2E"/>
<stop offset="0.35" stop-color="#CCA235"/>
<stop offset="0.37" stop-color="#D2AC40"/>
<stop offset="0.39" stop-color="#DBBA51"/>
<stop offset="0.41" stop-color="#E6CD67"/>
<stop offset="0.42" stop-color="#FDF294"/>
<stop offset="0.48" stop-color="#F7EA8C"/>
<stop offset="0.58" stop-color="#E8D375"/>
<stop offset="0.69" stop-color="#CFAE51"/>
<stop offset="0.79" stop-color="#B6892D"/>
<stop offset="1" stop-color="#C89B2C"/>
</linearGradient>
<linearGradient id="paint1_linear_1_5946" x1="20.115" y1="12.5922" x2="1.73466" y2="29.2773" gradientUnits="userSpaceOnUse">
<stop stop-color="#875121"/>
<stop offset="0.08" stop-color="#895421"/>
<stop offset="0.13" stop-color="#915C23"/>
<stop offset="0.17" stop-color="#9D6B25"/>
<stop offset="0.21" stop-color="#AF7F28"/>
<stop offset="0.24" stop-color="#C6992C"/>
<stop offset="0.25" stop-color="#C89B2C"/>
<stop offset="0.33" stop-color="#C99D2E"/>
<stop offset="0.35" stop-color="#CCA235"/>
<stop offset="0.37" stop-color="#D2AC40"/>
<stop offset="0.39" stop-color="#DBBA51"/>
<stop offset="0.41" stop-color="#E6CD67"/>
<stop offset="0.42" stop-color="#FDF294"/>
<stop offset="0.48" stop-color="#F7EA8C"/>
<stop offset="0.58" stop-color="#E8D375"/>
<stop offset="0.69" stop-color="#CFAE51"/>
<stop offset="0.79" stop-color="#B6892D"/>
<stop offset="1" stop-color="#C89B2C"/>
</linearGradient>
<linearGradient id="paint2_linear_1_5946" x1="22.787" y1="21.7201" x2="5.37341" y2="5.97088" gradientUnits="userSpaceOnUse">
<stop stop-color="#B65200"/>
<stop offset="0.21" stop-color="#B85300"/>
<stop offset="0.29" stop-color="#BF5600"/>
<stop offset="0.34" stop-color="#CA5C00"/>
<stop offset="0.38" stop-color="#D66100"/>
<stop offset="0.43" stop-color="#D86503"/>
<stop offset="0.49" stop-color="#DD710D"/>
<stop offset="0.54" stop-color="#E6841D"/>
<stop offset="0.59" stop-color="#F29E32"/>
<stop offset="0.7" stop-color="#F09B30"/>
<stop offset="0.79" stop-color="#E8912A"/>
<stop offset="0.87" stop-color="#DB811F"/>
<stop offset="0.94" stop-color="#C96A10"/>
<stop offset="1" stop-color="#B65200"/>
</linearGradient>
<linearGradient id="paint3_linear_1_5946" x1="0.939721" y1="7.1697" x2="22.9975" y2="16.5691" gradientUnits="userSpaceOnUse">
<stop stop-color="#B65200"/>
<stop offset="0.42" stop-color="#A54D0C"/>
<stop offset="0.43" stop-color="#A9500F"/>
<stop offset="0.45" stop-color="#B55A18"/>
<stop offset="0.46" stop-color="#C86B27"/>
<stop offset="0.48" stop-color="#F28F46"/>
<stop offset="0.58" stop-color="#EF8C44"/>
<stop offset="0.66" stop-color="#E5843C"/>
<stop offset="0.72" stop-color="#D57630"/>
<stop offset="0.79" stop-color="#BE621F"/>
<stop offset="0.84" stop-color="#A54D0C"/>
</linearGradient>
<linearGradient id="paint4_linear_1_5946" x1="3.0553" y1="19.8605" x2="16.1879" y2="6.98311" gradientUnits="userSpaceOnUse">
<stop stop-color="#B65200"/>
<stop offset="0.42" stop-color="#A54D0C"/>
<stop offset="0.43" stop-color="#A9500F"/>
<stop offset="0.45" stop-color="#B55A18"/>
<stop offset="0.46" stop-color="#C86B27"/>
<stop offset="0.48" stop-color="#F28F46"/>
<stop offset="0.58" stop-color="#EF8C44"/>
<stop offset="0.66" stop-color="#E5843C"/>
<stop offset="0.72" stop-color="#D57630"/>
<stop offset="0.79" stop-color="#BE621F"/>
<stop offset="0.84" stop-color="#A54D0C"/>
</linearGradient>
<linearGradient id="paint5_linear_1_5946" x1="2.61492" y1="7.25236" x2="14.855" y2="13.3724" gradientUnits="userSpaceOnUse">
<stop stop-color="#B65200"/>
<stop offset="0.21" stop-color="#B85300"/>
<stop offset="0.29" stop-color="#BF5600"/>
<stop offset="0.34" stop-color="#CA5C00"/>
<stop offset="0.38" stop-color="#D66100"/>
<stop offset="0.43" stop-color="#D86503"/>
<stop offset="0.49" stop-color="#DD710D"/>
<stop offset="0.54" stop-color="#E6841D"/>
<stop offset="0.59" stop-color="#F29E32"/>
<stop offset="0.7" stop-color="#F09B30"/>
<stop offset="0.79" stop-color="#E8912A"/>
<stop offset="0.87" stop-color="#DB811F"/>
<stop offset="0.94" stop-color="#C96A10"/>
<stop offset="1" stop-color="#B65200"/>
</linearGradient>
</defs>
</svg>
