<svg width="26" height="32" viewBox="0 0 26 32" fill="none" xmlns="http://www.w3.org/2000/svg">
<g id="Layer 2">
<g id="Layer 1">
<path id="Vector" d="M15.8445 17.1396L21.5292 28.4036L22.6477 28.4796L16.2841 15.8118L9.27585 19.3324L15.6394 32L16.2758 31.0112L10.6036 19.7723L15.8445 17.1396Z" fill="#EE233B"/>
<path id="Vector_2" d="M10.9831 19.8977L16.4537 30.7348L18.1041 28.1707L21.2022 28.3814L15.7189 17.5191L10.9831 19.8977Z" fill="#EE233B"/>
<path id="Vector_3" d="M10.9831 19.8977L15.7189 17.5191L21.2022 28.3814L21.5292 28.4036L15.8445 17.1396L10.6036 19.7724L16.2758 31.0112L16.4537 30.7348L10.9831 19.8977Z" fill="#EE233B"/>
<path id="Vector_4" d="M10.9831 19.8977L15.7189 17.5191L21.2022 28.3814L21.5292 28.4036L15.8445 17.1396L10.6036 19.7724L16.2758 31.0112L16.4537 30.7348L10.9831 19.8977Z" fill="url(#paint0_linear_1_5917)"/>
<path id="Vector_5" d="M7.86916 17.1396L2.18448 28.4036L1.06593 28.4796L7.42951 15.8118L14.4378 19.3324L8.0742 32L7.43782 31.0112L13.11 19.7723L7.86916 17.1396Z" fill="#EE233B"/>
<path id="Vector_6" d="M12.7307 19.8977L7.25991 30.7348L5.60956 28.1707L2.51147 28.3814L7.99478 17.5191L12.7307 19.8977Z" fill="#EE233B"/>
<path id="Vector_7" d="M12.7308 19.8977L7.99478 17.5191L2.51147 28.3814L2.18448 28.4036L7.86916 17.1396L13.11 19.7724L7.43782 31.0112L7.25991 30.7348L12.7308 19.8977Z" fill="#EE233B"/>
<path id="Vector_8" d="M12.7308 19.8977L7.99478 17.5191L2.51147 28.3814L2.18448 28.4036L7.86916 17.1396L13.11 19.7724L7.43782 31.0112L7.25991 30.7348L12.7308 19.8977Z" fill="url(#paint1_linear_1_5917)"/>
<path id="Vector_9" opacity="0.05" d="M24.6373 11.3987C24.2853 11.1212 24.0335 10.7363 23.9201 10.3026C23.8068 9.86897 23.838 9.41015 24.0092 8.99587C24.5224 7.75585 23.7299 6.3648 22.4019 6.17247C21.9584 6.10797 21.5482 5.90051 21.2334 5.58161C20.9186 5.26271 20.7164 4.84979 20.6577 4.40555C20.4815 3.07536 19.1002 2.26668 17.8541 2.76401C17.4377 2.93007 16.9786 2.95572 16.5463 2.83707C16.114 2.71842 15.7323 2.46195 15.4591 2.10661C14.6414 1.04279 13.0397 1.03302 12.2102 2.08657C11.9327 2.43872 11.5478 2.69064 11.114 2.80404C10.6802 2.91745 10.2213 2.88615 9.80691 2.71489C8.56689 2.20167 7.17584 2.99422 6.98351 4.32197C6.91917 4.7656 6.7118 5.17611 6.39289 5.49113C6.07399 5.80616 5.66097 6.00849 5.21659 6.06738C3.88566 6.24383 3.07698 7.62486 3.57504 8.87123C3.74114 9.28758 3.76682 9.74676 3.64816 10.179C3.52951 10.6113 3.27302 10.993 2.91764 11.2662C1.85383 12.0839 1.84405 13.6857 2.89785 14.5149C3.24998 14.7923 3.50189 15.1772 3.6153 15.6109C3.7287 16.0447 3.69741 16.5036 3.52617 16.9179C3.01295 18.1579 3.80452 19.5487 5.13252 19.7413C5.57616 19.8056 5.98669 20.013 6.30172 20.3319C6.61676 20.6508 6.81907 21.0638 6.87793 21.5082C7.05413 22.8382 8.43541 23.6469 9.68154 23.1498C10.0979 22.9836 10.5571 22.9579 10.9893 23.0766C11.4216 23.1952 11.8033 23.4518 12.0765 23.8072C12.8942 24.871 14.496 24.8808 15.3254 23.827C15.6029 23.4749 15.9877 23.223 16.4214 23.1097C16.8551 22.9963 17.3139 23.0276 17.7282 23.1989C18.9682 23.7121 20.3593 22.9193 20.5516 21.5916C20.616 21.1478 20.8235 20.7372 21.1426 20.4221C21.4617 20.1071 21.875 19.9049 22.3195 19.8462C23.6497 19.6699 24.4584 18.2887 23.9611 17.0425C23.7949 16.6262 23.7692 16.167 23.8879 15.7347C24.0065 15.3025 24.263 14.9207 24.6185 14.6476C25.6813 13.8298 25.692 12.2294 24.6373 11.3987Z" fill="#231F20"/>
<path id="Vector_10" opacity="0.1" d="M24.4457 11.2684C24.0936 10.9909 23.8418 10.6061 23.7284 10.1724C23.615 9.73875 23.6462 9.27991 23.8174 8.86561C24.3306 7.62559 23.538 6.23454 22.2103 6.04221C21.7666 5.97787 21.3561 5.7705 21.0411 5.45159C20.7261 5.13269 20.5238 4.71967 20.4649 4.27529C20.2884 2.94509 18.9074 2.13642 17.661 2.63374C17.2447 2.7998 16.7855 2.82545 16.3532 2.7068C15.921 2.58815 15.5392 2.33168 15.266 1.97634C14.4503 0.912528 12.8485 0.902753 12.0181 1.9563C11.7406 2.30835 11.3558 2.5602 10.9221 2.6736C10.4885 2.787 10.0296 2.75576 9.61531 2.58462C8.37529 2.07141 6.98448 2.86396 6.79191 4.19171C6.72782 4.63562 6.52053 5.04647 6.20155 5.36178C5.88258 5.67709 5.46937 5.87962 5.02475 5.93859C3.69479 6.11479 2.88612 7.49582 3.3832 8.74219C3.5493 9.15854 3.57497 9.61771 3.45632 10.05C3.33767 10.4822 3.08117 10.864 2.7258 11.1372C1.66199 11.9549 1.65221 13.5554 2.70601 14.3861C3.05807 14.6635 3.30992 15.0484 3.42329 15.4821C3.53665 15.9158 3.50533 16.3746 3.33408 16.7889C2.82087 18.0289 3.61366 19.4197 4.94141 19.6123C5.38505 19.6766 5.79558 19.8839 6.11061 20.2028C6.42565 20.5218 6.62796 20.9348 6.68682 21.3792C6.86302 22.7091 8.2443 23.5178 9.49043 23.0207C9.90676 22.8546 10.366 22.8289 10.7982 22.9475C11.2305 23.0662 11.6122 23.3227 11.8854 23.6781C12.7031 24.7419 14.3036 24.7517 15.1343 23.6979C15.4118 23.3459 15.7966 23.094 16.2303 22.9806C16.664 22.8673 17.1228 22.8986 17.5371 23.0699C18.7771 23.5831 20.1682 22.7905 20.3607 21.4625C20.425 21.0189 20.6323 20.6084 20.9512 20.2933C21.27 19.9783 21.6831 19.776 22.1274 19.7171C23.4576 19.5397 24.2663 18.1579 23.769 16.9116C23.6029 16.4952 23.5773 16.036 23.6959 15.6038C23.8146 15.1715 24.071 14.7898 24.4264 14.5166C25.4902 13.6996 25.5 12.0991 24.4457 11.2684Z" fill="#231F20"/>
<path id="Vector_11" opacity="0.14" d="M24.2553 11.1382C23.9032 10.8607 23.6514 10.4759 23.538 10.0422C23.4246 9.60847 23.456 9.14962 23.6272 8.73536C24.1404 7.49534 23.3476 6.10429 22.0199 5.91196C21.5763 5.84762 21.1658 5.64025 20.8507 5.32134C20.5357 5.00244 20.3334 4.58942 20.2745 4.14504C20.0983 2.81484 18.717 2.00617 17.4709 2.50349C17.0545 2.66955 16.5954 2.69521 16.1631 2.57656C15.7308 2.45791 15.3491 2.20144 15.0759 1.84609C14.2582 0.782279 12.6565 0.772503 11.827 1.82605C11.5495 2.17802 11.1646 2.4298 10.731 2.54316C10.2973 2.65651 9.83848 2.62526 9.4242 2.45413C8.18418 1.94092 6.79313 2.73346 6.60055 4.06122C6.53623 4.50481 6.3289 4.91529 6.01004 5.23031C5.69118 5.54533 5.27822 5.74768 4.83388 5.80663C3.50368 5.98283 2.69501 7.36386 3.19209 8.61023C3.35816 9.0266 3.3838 9.4858 3.2651 9.91807C3.14641 10.3503 2.88986 10.732 2.53445 11.0052C1.47088 11.8229 1.4611 13.4234 2.51465 14.2541C2.86669 14.5316 3.11854 14.9164 3.23195 15.3501C3.34535 15.7838 3.31411 16.2426 3.14297 16.6569C2.62976 17.8969 3.4223 19.2877 4.75006 19.4803C5.1937 19.5446 5.60423 19.752 5.91926 20.0709C6.23429 20.3898 6.43661 20.8028 6.49547 21.2472C6.67191 22.5772 8.05294 23.3859 9.29907 22.8888C9.71542 22.7227 10.1746 22.697 10.6069 22.8157C11.0391 22.9343 11.4209 23.1908 11.6941 23.5462C12.5118 24.61 14.1135 24.6198 14.9427 23.566C15.2202 23.2139 15.6051 22.9621 16.0388 22.8487C16.4726 22.7354 16.9314 22.7667 17.3457 22.9379C18.5858 23.4511 19.9766 22.6586 20.1691 21.3306C20.2334 20.8869 20.4408 20.4764 20.7597 20.1614C21.0786 19.8463 21.4917 19.644 21.9361 19.5852C23.266 19.4089 24.0747 18.0277 23.5776 16.7815C23.4115 16.3652 23.3858 15.906 23.5044 15.4737C23.6231 15.0415 23.8796 14.6597 24.235 14.3866C25.2993 13.5693 25.3091 11.9688 24.2553 11.1382Z" fill="#231F20"/>
<path id="Vector_12" opacity="0.19" d="M24.0642 11.0079C23.7122 10.7304 23.4604 10.3455 23.347 9.91187C23.2337 9.47819 23.2649 9.01937 23.4361 8.60509C23.9493 7.36507 23.1568 5.97402 21.8288 5.78169C21.3852 5.71736 20.9746 5.50999 20.6596 5.19108C20.3446 4.87217 20.1423 4.45916 20.0834 4.01478C19.9072 2.68458 18.5259 1.8759 17.2798 2.37323C16.8634 2.53929 16.4042 2.56494 15.972 2.44629C15.5397 2.32764 15.158 2.07117 14.8848 1.71583C14.0671 0.652014 12.4666 0.642239 11.6359 1.69603C11.3583 2.048 10.9735 2.29978 10.5398 2.41314C10.1062 2.52649 9.64737 2.49523 9.23309 2.32411C7.99307 1.8109 6.60202 2.60344 6.40969 3.93144C6.34531 4.37505 6.13793 4.78554 5.81903 5.10055C5.50013 5.41557 5.08714 5.61792 4.64277 5.67685C3.31257 5.85305 2.5039 7.23384 3.00122 8.48021C3.16728 8.89656 3.19293 9.35573 3.07429 9.78798C2.95564 10.2202 2.69917 10.602 2.34382 10.8752C1.28001 11.6932 1.27023 13.2946 2.32403 14.1255C2.676 14.4031 2.92777 14.7879 3.04113 15.2216C3.15449 15.6553 3.12323 16.1141 2.9521 16.5284C2.43889 17.7684 3.23144 19.1592 4.55943 19.3518C5.00305 19.4161 5.41353 19.6235 5.72855 19.9424C6.04357 20.2613 6.24591 20.6743 6.30484 21.1187C6.48105 22.4486 7.86232 23.2573 9.10845 22.7602C9.52479 22.5941 9.98398 22.5684 10.4163 22.687C10.8485 22.8057 11.2303 23.0622 11.5034 23.4176C12.3212 24.4814 13.9216 24.4912 14.7523 23.4374C15.0298 23.0854 15.4146 22.8335 15.8483 22.7202C16.282 22.6068 16.7409 22.6381 17.1551 22.8093C18.3951 23.3225 19.7859 22.53 19.9785 21.202C20.0429 20.7584 20.2502 20.3479 20.5691 20.0328C20.888 19.7178 21.3011 19.5155 21.7454 19.4566C23.0756 19.2804 23.8843 17.8991 23.387 16.653C23.2208 16.2367 23.1952 15.7775 23.3138 15.3452C23.4325 14.9129 23.689 14.5312 24.0444 14.258C25.1082 13.4391 25.118 11.8386 24.0642 11.0079Z" fill="#231F20"/>
<path id="Vector_13" opacity="0.24" d="M23.8733 10.8776C23.5213 10.6002 23.2694 10.2153 23.156 9.78166C23.0426 9.34798 23.0739 8.88914 23.245 8.47484C23.7582 7.23482 22.9657 5.84377 21.6379 5.65144C21.1945 5.58717 20.7841 5.37998 20.4691 5.06131C20.1541 4.74264 19.9516 4.32991 19.8925 3.88574C19.7161 2.55433 18.336 1.74565 17.0896 2.24298C16.6733 2.40904 16.2141 2.43469 15.7819 2.31604C15.3496 2.19739 14.9679 1.94092 14.6946 1.58558C13.8759 0.521761 12.2752 0.513208 11.4443 1.56578C11.1667 1.91775 10.7819 2.16953 10.3483 2.28288C9.91459 2.39624 9.45577 2.36498 9.04149 2.19386C7.80294 1.68138 6.41115 2.47319 6.21858 3.80119C6.15444 4.24499 5.94715 4.65572 5.62823 4.97094C5.30931 5.28616 4.89618 5.48863 4.45166 5.54757C3.12171 5.72378 2.31303 7.10505 2.81011 8.35118C2.97621 8.76752 3.00189 9.2267 2.88324 9.65897C2.76458 10.0912 2.50809 10.473 2.15271 10.7462C1.0889 11.5629 1.07912 13.1634 2.13316 13.9941C2.48523 14.2715 2.73708 14.6564 2.85045 15.0901C2.96381 15.5238 2.93249 15.9826 2.76124 16.3969C2.24803 17.6369 3.04057 19.0277 4.36857 19.2203C4.8122 19.2846 5.2227 19.492 5.53773 19.8109C5.85275 20.1298 6.05508 20.5428 6.11398 20.9872C6.29018 22.3171 7.67146 23.1261 8.91758 22.6287C9.33392 22.4626 9.79312 22.4369 10.2254 22.5556C10.6577 22.6742 11.0394 22.9307 11.3126 23.2861C12.1303 24.35 13.7308 24.3597 14.5615 23.3059C14.8391 22.9542 15.224 22.7027 15.6576 22.5895C16.0912 22.4764 16.5499 22.5078 16.964 22.6791C18.204 23.1923 19.5951 22.3997 19.7874 21.0718C19.8518 20.6281 20.0591 20.2176 20.378 19.9026C20.6969 19.5876 21.11 19.3852 21.5543 19.3263C22.8845 19.1489 23.6932 17.7669 23.1959 16.5205C23.0298 16.1042 23.0042 15.645 23.1228 15.2128C23.2415 14.7805 23.4979 14.3988 23.8533 14.1255C24.9171 13.3088 24.9269 11.7083 23.8733 10.8776Z" fill="#231F20"/>
<path id="Vector_14" opacity="0.29" d="M23.6822 10.7474C23.3302 10.4699 23.0783 10.0851 22.9649 9.6514C22.8515 9.21772 22.8827 8.75888 23.0539 8.34458C23.5671 7.10456 22.7743 5.71351 21.4466 5.52118C21.0029 5.45684 20.5924 5.24947 20.2774 4.93056C19.9624 4.61166 19.76 4.19864 19.7011 3.75426C19.5247 2.42406 18.1437 1.61539 16.8975 2.11272C16.4812 2.27886 16.022 2.30455 15.5897 2.1859C15.1575 2.06724 14.7757 1.81072 14.5026 1.45531C13.6851 0.391011 12.0846 0.381724 11.2539 1.43552C10.9764 1.78749 10.5915 2.03927 10.1579 2.15262C9.72421 2.26598 9.26539 2.23472 8.85111 2.06359C7.61085 1.55038 6.22004 2.34293 6.02746 3.67093C5.96318 4.11453 5.75586 4.52503 5.43699 4.84006C5.11813 5.15509 4.70515 5.35743 4.26079 5.41634C2.9306 5.59254 2.12192 6.97381 2.619 8.21994C2.7851 8.63628 2.81078 9.09546 2.69212 9.52773C2.57347 9.96 2.31698 10.3417 1.9616 10.6149C0.898032 11.4326 0.888256 13.0331 1.94181 13.8638C2.29385 14.1413 2.5457 14.5261 2.6591 14.9598C2.77251 15.3935 2.74127 15.8523 2.57013 16.2666C2.05691 17.5066 2.84946 18.8974 4.17721 19.09C4.62084 19.1544 5.03135 19.3617 5.34637 19.6806C5.6614 19.9995 5.86373 20.4126 5.92262 20.8569C6.09907 22.1871 7.4801 22.9958 8.72623 22.4985C9.14257 22.3324 9.60175 22.3067 10.034 22.4254C10.4663 22.544 10.848 22.8005 11.1212 23.1559C11.9389 24.2197 13.5392 24.2295 14.3699 23.1757C14.6473 22.8238 15.032 22.5721 15.4656 22.4588C15.8991 22.3454 16.3577 22.3766 16.7719 22.5476C18.0122 23.0608 19.403 22.2683 19.5956 20.9403C19.6599 20.4967 19.8672 20.0862 20.186 19.7711C20.5049 19.4561 20.9179 19.2538 21.3622 19.1949C22.6922 19.0187 23.5009 17.6374 23.0038 16.3913C22.8376 15.9749 22.812 15.5157 22.9306 15.0834C23.0493 14.6512 23.3058 14.2694 23.6612 13.9963C24.7262 13.1785 24.7358 11.5781 23.6822 10.7474Z" fill="#231F20"/>
<path id="Vector_15" opacity="0.34" d="M23.4911 10.6171C23.1391 10.3396 22.8873 9.95477 22.7739 9.52109C22.6606 9.08742 22.6919 8.62859 22.863 8.21431C23.3762 6.9743 22.5837 5.58325 21.2557 5.39091C20.8121 5.32658 20.4016 5.11921 20.0865 4.8003C19.7715 4.48139 19.5692 4.06838 19.5103 3.624C19.3341 2.2938 17.9528 1.48513 16.7067 1.98245C16.2903 2.14859 15.8311 2.17429 15.3989 2.05563C14.9666 1.93698 14.5849 1.68046 14.3117 1.32505C13.494 0.261236 11.8923 0.251461 11.0628 1.30526C10.7853 1.65726 10.4005 1.90906 9.96678 2.02242C9.5331 2.13578 9.07428 2.1045 8.66 1.93333C7.41998 1.42012 6.02893 2.21266 5.8366 3.54066C5.77223 3.98427 5.56484 4.39476 5.24594 4.70978C4.92704 5.0248 4.51405 5.22714 4.06968 5.28607C2.73949 5.46228 1.93081 6.84282 2.42814 8.08919C2.5942 8.50554 2.61985 8.96471 2.5012 9.39696C2.38255 9.82922 2.12608 10.2109 1.77074 10.4842C0.706922 11.3024 0.697146 12.9036 1.7507 13.7345C2.10266 14.0121 2.35444 14.3969 2.4678 14.8306C2.58116 15.2642 2.5499 15.723 2.37877 16.1373C1.86556 17.3774 2.65811 18.7682 3.98586 18.9607C4.42947 19.0251 4.83995 19.2325 5.15497 19.5514C5.46999 19.8703 5.67233 20.2833 5.73127 20.7276C5.90796 22.0569 7.28972 22.8655 8.53609 22.3682C8.95244 22.2021 9.41162 22.1764 9.84389 22.2951C10.2762 22.4137 10.6579 22.6702 10.9311 23.0256C11.7488 24.0894 13.3493 24.0992 14.18 23.0454C14.4575 22.6934 14.8423 22.4416 15.276 22.3282C15.7097 22.2148 16.1685 22.2461 16.5828 22.4173C17.8228 22.9305 19.2136 22.138 19.4062 20.81C19.4705 20.3664 19.6778 19.9558 19.9967 19.6408C20.3157 19.3258 20.7287 19.1235 21.1731 19.0646C22.503 18.8884 23.3117 17.5071 22.8146 16.261C22.6485 15.8447 22.6228 15.3855 22.7415 14.9532C22.8601 14.5209 23.1166 14.1392 23.472 13.866C24.5351 13.0483 24.5449 11.4478 23.4911 10.6171Z" fill="#231F20"/>
<path id="Vector_16" opacity="0.39" d="M23.3 10.4869C22.948 10.2093 22.6962 9.82449 22.5829 9.39083C22.4695 8.95716 22.5008 8.49835 22.6719 8.08406C23.1851 6.84404 22.3926 5.45299 21.0648 5.26066C20.6213 5.19639 20.2109 4.98917 19.8958 4.67046C19.5808 4.35175 19.3783 3.93895 19.3192 3.49472C19.1425 2.16355 17.7619 1.35487 16.5156 1.8522C16.0992 2.0183 15.64 2.04397 15.2078 1.92532C14.7755 1.80667 14.3938 1.55017 14.1206 1.1948C13.3029 0.130985 11.7024 0.122187 10.8717 1.175C10.5942 1.52704 10.2094 1.77887 9.77568 1.89223C9.342 2.00559 8.88316 1.97429 8.46889 1.80308C7.22887 1.28987 5.83807 2.08241 5.64549 3.41041C5.5813 3.85417 5.374 4.26484 5.05508 4.58001C4.73616 4.89518 4.32306 5.09762 3.87857 5.15655C2.54862 5.33202 1.73995 6.7133 2.23703 7.95943C2.40317 8.37576 2.42886 8.83496 2.31021 9.26723C2.19155 9.69951 1.93503 10.0812 1.57963 10.3544C0.515812 11.1721 0.506037 12.7726 1.55983 13.6033C1.9121 13.8809 2.16407 14.2659 2.27744 14.6999C2.39081 15.1338 2.35937 15.5929 2.18791 16.0073C1.67567 17.2461 2.46724 18.6369 3.79499 18.8295C4.23862 18.8938 4.64913 19.1012 4.96415 19.4201C5.27918 19.739 5.48151 20.152 5.5404 20.5964C5.71661 21.9266 7.09788 22.7353 8.34401 22.238C8.76035 22.0718 9.21954 22.0461 9.65182 22.1648C10.0841 22.2834 10.4658 22.54 10.739 22.8954C11.5567 23.9592 13.1584 23.969 13.9879 22.9152C14.2655 22.5633 14.6505 22.3116 15.0842 22.1984C15.5179 22.0853 15.9767 22.1167 16.3909 22.2881C17.6309 22.8013 19.022 22.0087 19.2143 20.6807C19.2787 20.2371 19.486 19.8266 19.8049 19.5116C20.1238 19.1965 20.5369 18.9942 20.9812 18.9353C22.3114 18.7591 23.1201 17.3778 22.6228 16.1317C22.4567 15.7154 22.4311 15.2562 22.5497 14.8239C22.6684 14.3917 22.9249 14.01 23.2802 13.7367C24.344 12.918 24.3538 11.3175 23.3 10.4869Z" fill="#231F20"/>
<path id="Vector_17" opacity="0.43" d="M23.1091 10.3566C22.7571 10.0791 22.5052 9.6943 22.3918 9.26062C22.2784 8.82694 22.3097 8.3681 22.4808 7.9538C22.994 6.71378 22.2015 5.32273 20.8737 5.1304C20.4301 5.06607 20.0196 4.85869 19.7046 4.53979C19.3895 4.22088 19.1872 3.80786 19.1283 3.36348C18.9519 2.03329 17.5708 1.22461 16.3247 1.72194C15.9084 1.888 15.4492 1.91365 15.0169 1.795C14.5847 1.67635 14.2029 1.41988 13.9297 1.06454C13.1117 -1.17123e-05 11.5115 -0.00905401 10.6808 1.04474C10.4033 1.39674 10.0185 1.64854 9.5848 1.7619C9.15113 1.87526 8.6923 1.84398 8.27802 1.67282C7.03776 1.1596 5.64696 1.95215 5.45438 3.28015C5.3901 3.72375 5.18277 4.13425 4.86391 4.44928C4.54504 4.76431 4.13206 4.96665 3.68771 5.02556C2.35775 5.20176 1.54908 6.58303 2.04616 7.82916C2.2123 8.2455 2.238 8.70469 2.11934 9.13697C2.00069 9.56925 1.74417 9.95097 1.38876 10.2242C0.324701 11.0419 0.31517 12.6424 1.36872 13.473C1.72079 13.7505 1.97264 14.1353 2.086 14.569C2.19937 15.0027 2.16805 15.4616 1.9968 15.8758C1.48358 17.1159 2.27637 18.5069 3.60413 18.6992C4.04775 18.7636 4.45826 18.9709 4.77329 19.2899C5.08831 19.6088 5.29064 20.0218 5.34954 20.4662C5.52598 21.7964 6.90701 22.605 8.15314 22.1077C8.56948 21.9416 9.02867 21.9159 9.46095 22.0345C9.89322 22.1532 10.275 22.4097 10.5481 22.7651C11.3658 23.8289 12.9663 23.8387 13.797 22.7849C14.0745 22.4329 14.4594 22.1811 14.893 22.0677C15.3267 21.9544 15.7855 21.9857 16.1998 22.1568C17.4401 22.67 18.8309 21.8775 19.0235 20.5495C19.0877 20.1059 19.295 19.6953 19.6139 19.3803C19.9328 19.0653 20.3458 18.863 20.7901 18.8041C22.1203 18.6279 22.929 17.2466 22.4319 16.0005C22.2658 15.5841 22.2401 15.1249 22.3587 14.6927C22.4774 14.2604 22.7339 13.8787 23.0893 13.6055C24.1524 12.7878 24.1627 11.1873 23.1091 10.3566Z" fill="#231F20"/>
<path id="Vector_18" opacity="0.48" d="M22.918 10.2264C22.5659 9.94889 22.3141 9.56406 22.2007 9.13036C22.0874 8.69667 22.1187 8.23782 22.2899 7.82355C22.8031 6.58353 22.0106 5.19248 20.6826 5.00015C20.239 4.93582 19.8285 4.72845 19.5134 4.40954C19.1984 4.09063 18.9961 3.67762 18.9372 3.23324C18.761 1.90304 17.3797 1.09436 16.1336 1.59169C15.7173 1.75783 15.2581 1.78353 14.8258 1.66487C14.3935 1.54621 14.0118 1.2897 13.7386 0.93429C12.9209 -0.129526 11.3204 -0.139301 10.4897 0.914494C10.2122 1.26649 9.82737 1.5183 9.39369 1.63166C8.96002 1.74502 8.50119 1.71374 8.08691 1.54257C6.84689 1.02936 5.45585 1.8219 5.26351 3.1499C5.19918 3.59353 4.99181 4.00403 4.6729 4.31906C4.35399 4.63408 3.94098 4.83641 3.4966 4.89531C2.1664 5.07151 1.35772 6.45181 1.85505 7.69818C2.02111 8.11453 2.04676 8.5737 1.92811 9.00596C1.80946 9.43821 1.55299 9.81994 1.19765 10.0932C0.133836 10.9116 0.12406 12.5126 1.17761 13.3435C1.52958 13.6211 1.78136 14.0059 1.89471 14.4396C2.00807 14.8732 1.97681 15.332 1.80569 15.7463C1.29345 16.9849 2.08429 18.3779 3.41302 18.569C3.85661 18.6334 4.26708 18.8408 4.58209 19.1597C4.8971 19.4786 5.09945 19.8916 5.15843 20.3359C5.33463 21.6661 6.71566 22.4748 7.96203 21.9775C8.37838 21.8114 8.83756 21.7857 9.26982 21.9043C9.70209 22.023 10.0838 22.2795 10.357 22.6349C11.1747 23.6987 12.7765 23.7084 13.6059 22.6546C13.8834 22.3026 14.2682 22.0508 14.7019 21.9374C15.1356 21.8241 15.5944 21.8554 16.0087 22.0266C17.2487 22.5398 18.6395 21.7472 18.8321 20.4192C18.8964 19.9756 19.1038 19.5651 19.4227 19.2501C19.7416 18.9351 20.1546 18.7327 20.599 18.6738C21.929 18.4976 22.7377 17.1164 22.2406 15.8702C22.0744 15.4539 22.0487 14.9947 22.1674 14.5624C22.286 14.1301 22.5426 13.7484 22.898 13.4752C23.962 12.6575 23.9718 11.057 22.918 10.2264Z" fill="#231F20"/>
<path id="Vector_19" opacity="0.53" d="M22.7269 10.0961C22.3751 9.81845 22.1234 9.43358 22.0102 8.99992C21.897 8.56626 21.9284 8.1075 22.0996 7.69329C22.6128 6.45327 21.8202 5.06246 20.4922 4.86989C20.0486 4.8057 19.638 4.59849 19.3229 4.27972C19.0077 3.96095 18.8052 3.54804 18.7461 3.1037C18.5699 1.77351 17.1886 0.964831 15.9425 1.46216C15.5261 1.62826 15.067 1.65393 14.6347 1.53528C14.2024 1.41663 13.8207 1.16013 13.5475 0.804758C12.7298 -0.259791 11.1293 -0.268833 10.2986 0.78423C10.0211 1.13623 9.63626 1.38803 9.20258 1.50139C8.7689 1.61475 8.31008 1.58347 7.8958 1.4123C6.65578 0.899091 5.26498 1.69164 5.0724 3.01963C5.0082 3.46324 4.80098 3.87378 4.48221 4.18889C4.16344 4.504 3.75054 4.70646 3.30622 4.76553C1.97553 4.94125 1.16661 6.32252 1.66394 7.56865C1.83008 7.98499 1.85578 8.44418 1.73712 8.87646C1.61847 9.30873 1.36195 9.69046 1.00654 9.96364C-0.0572755 10.7814 -0.0670511 12.3818 0.986745 13.2125C1.33896 13.4901 1.5909 13.8751 1.70426 14.309C1.81763 14.7429 1.78622 15.2019 1.61482 15.6163C1.10161 16.8563 1.89415 18.2474 3.22215 18.4397C3.66572 18.5039 4.07623 18.7111 4.39134 19.0298C4.70644 19.3485 4.90893 19.7614 4.96805 20.2056C5.14425 21.5358 6.52553 22.3445 7.77165 21.8472C8.188 21.6811 8.64717 21.6555 9.07943 21.7741C9.51168 21.8928 9.89341 22.1492 10.1666 22.5046C10.9844 23.5684 12.5848 23.5782 13.4155 22.5244C13.6932 22.1724 14.0781 21.9207 14.5119 21.8074C14.9457 21.6942 15.4046 21.7257 15.8188 21.897C17.0588 22.4103 18.4499 21.6177 18.6422 20.2897C18.7066 19.8461 18.914 19.4356 19.2329 19.1206C19.5518 18.8056 19.9648 18.6032 20.4091 18.5443C21.7393 18.3681 22.548 16.9868 22.0507 15.7407C21.8846 15.3243 21.859 14.8652 21.9776 14.4329C22.0963 14.0007 22.3527 13.6189 22.7081 13.3457C23.7709 12.5273 23.7807 10.9268 22.7269 10.0961Z" fill="#231F20"/>
<path id="Vector_20" d="M18.6412 20.2985C18.4489 21.6263 17.0579 22.4181 15.8178 21.9058C15.4036 21.7346 14.9447 21.7033 14.511 21.8166C14.0773 21.93 13.6925 22.1819 13.415 22.5339C12.5841 23.5877 10.9839 23.5779 10.1662 22.5141C9.89297 22.1587 9.51125 21.9022 9.07897 21.7835C8.6467 21.6649 8.1875 21.6906 7.77116 21.8567C6.52479 22.3538 5.14376 21.5451 4.96756 20.2152C4.9087 19.7708 4.70639 19.3577 4.39135 19.0388C4.07632 18.7199 3.66579 18.5126 3.22215 18.4483C1.89415 18.2557 1.10258 16.8649 1.61482 15.6249C1.78621 15.2105 1.8176 14.7515 1.70423 14.3177C1.59087 13.8838 1.33894 13.4989 0.986744 13.2213C-0.067051 12.3904 -0.0572755 10.7902 1.00654 9.97244C1.36191 9.69924 1.61841 9.31751 1.73706 8.88525C1.85571 8.45298 1.83004 7.9938 1.66394 7.57746C1.16661 6.33108 1.97553 4.95005 3.30549 4.77361C3.74987 4.71471 4.16288 4.51238 4.48179 4.19736C4.8007 3.88233 5.00807 3.47182 5.0724 3.0282C5.26498 1.70044 6.65578 0.90863 7.8958 1.42111C8.31011 1.59225 8.76895 1.62349 9.20262 1.51009C9.6363 1.39668 10.0211 1.14483 10.2986 0.792791C11.1295 -0.260761 12.7298 -0.250985 13.5475 0.81283C13.8207 1.16817 14.2024 1.42464 14.6347 1.54329C15.067 1.66194 15.5261 1.63629 15.9425 1.47023C17.1889 0.972904 18.5699 1.78158 18.7461 3.11178C18.805 3.55613 19.0073 3.96911 19.3224 4.28798C19.6374 4.60684 20.0479 4.81417 20.4915 4.87845C21.8195 5.07102 22.6113 6.46207 22.0988 7.70209C21.9277 8.11638 21.8964 8.57519 22.0098 9.00885C22.1232 9.44252 22.3749 9.82735 22.7269 10.1049C23.7807 10.9358 23.7709 12.5361 22.7071 13.3538C22.3518 13.627 22.0953 14.0087 21.9766 14.441C21.858 14.8733 21.8836 15.3324 22.0497 15.7488C22.547 16.9951 21.7384 18.3762 20.4082 18.5524C19.9637 18.6113 19.5506 18.8137 19.2317 19.1289C18.9127 19.4441 18.7054 19.8548 18.6412 20.2985Z" fill="url(#paint2_linear_1_5917)"/>
<path id="Vector_21" d="M11.7437 19.9405C16.2602 19.9405 19.9216 16.2791 19.9216 11.7626C19.9216 7.24603 16.2602 3.58466 11.7437 3.58466C7.22713 3.58466 3.56576 7.24603 3.56576 11.7626C3.56576 16.2791 7.22713 19.9405 11.7437 19.9405Z" fill="#875121"/>
<path id="Vector_22" d="M11.7437 19.9405C16.2602 19.9405 19.9216 16.2791 19.9216 11.7626C19.9216 7.24603 16.2602 3.58466 11.7437 3.58466C7.22713 3.58466 3.56576 7.24603 3.56576 11.7626C3.56576 16.2791 7.22713 19.9405 11.7437 19.9405Z" fill="url(#paint3_linear_1_5917)"/>
<path id="Vector_23" d="M11.6532 19.3056C15.817 19.3056 19.1923 15.9302 19.1923 11.7665C19.1923 7.60276 15.817 4.22739 11.6532 4.22739C7.48953 4.22739 4.11416 7.60276 4.11416 11.7665C4.11416 15.9302 7.48953 19.3056 11.6532 19.3056Z" fill="#333333"/>
<path id="Vector_24" d="M7.87087 16.5895V14.7705L7.99014 14.6578C10.249 12.5224 12.0333 10.8356 12.0333 9.61393C12.0333 8.9118 11.7043 8.55573 11.0557 8.55573C10.5147 8.55573 10.0501 8.96752 9.62826 9.41255L9.35943 9.69628L7.61671 7.96114L7.86916 7.69109C8.95864 6.52585 9.97089 6.05052 11.3597 6.05052C13.4913 6.05052 14.9234 7.43228 14.9234 9.48929C14.9234 11.0118 13.7728 12.5319 12.4306 13.9831C12.6599 13.9687 12.8813 13.9586 13.0682 13.9586H15.3814V16.5895H7.87087Z" fill="url(#paint4_linear_1_5917)"/>
<path id="Vector_25" d="M8.25212 14.9347C10.694 12.6265 12.4148 10.9876 12.4148 9.61392C12.4148 8.68525 11.8993 8.17448 11.0552 8.17448C10.3729 8.17448 9.83086 8.64371 9.35113 9.15008L8.14728 7.95258C9.09134 6.94277 9.98702 6.43274 11.3595 6.43274C13.2508 6.43274 14.5414 7.63976 14.5414 9.49026C14.5414 11.1059 13.0326 12.8274 11.4621 14.4513C11.956 14.3963 12.6244 14.3411 13.0687 14.3411H14.9994V16.2082H8.25212V14.9347Z" fill="url(#paint5_linear_1_5917)"/>
</g>
</g>
<defs>
<linearGradient id="paint0_linear_1_5917" x1="3.17254" y1="12.3765" x2="21.7574" y2="29.2472" gradientUnits="userSpaceOnUse">
<stop stop-color="#875121"/>
<stop offset="0.08" stop-color="#895421"/>
<stop offset="0.13" stop-color="#915C23"/>
<stop offset="0.17" stop-color="#9D6B25"/>
<stop offset="0.21" stop-color="#AF7F28"/>
<stop offset="0.24" stop-color="#C6992C"/>
<stop offset="0.25" stop-color="#C89B2C"/>
<stop offset="0.33" stop-color="#C99D2E"/>
<stop offset="0.35" stop-color="#CCA235"/>
<stop offset="0.37" stop-color="#D2AC40"/>
<stop offset="0.39" stop-color="#DBBA51"/>
<stop offset="0.41" stop-color="#E6CD67"/>
<stop offset="0.42" stop-color="#FDF294"/>
<stop offset="0.48" stop-color="#F7EA8C"/>
<stop offset="0.58" stop-color="#E8D375"/>
<stop offset="0.69" stop-color="#CFAE51"/>
<stop offset="0.79" stop-color="#B6892D"/>
<stop offset="1" stop-color="#C89B2C"/>
</linearGradient>
<linearGradient id="paint1_linear_1_5917" x1="20.5413" y1="12.3765" x2="1.95647" y2="29.2472" gradientUnits="userSpaceOnUse">
<stop stop-color="#875121"/>
<stop offset="0.08" stop-color="#895421"/>
<stop offset="0.13" stop-color="#915C23"/>
<stop offset="0.17" stop-color="#9D6B25"/>
<stop offset="0.21" stop-color="#AF7F28"/>
<stop offset="0.24" stop-color="#C6992C"/>
<stop offset="0.25" stop-color="#C89B2C"/>
<stop offset="0.33" stop-color="#C99D2E"/>
<stop offset="0.35" stop-color="#CCA235"/>
<stop offset="0.37" stop-color="#D2AC40"/>
<stop offset="0.39" stop-color="#DBBA51"/>
<stop offset="0.41" stop-color="#E6CD67"/>
<stop offset="0.42" stop-color="#FDF294"/>
<stop offset="0.48" stop-color="#F7EA8C"/>
<stop offset="0.58" stop-color="#E8D375"/>
<stop offset="0.69" stop-color="#CFAE51"/>
<stop offset="0.79" stop-color="#B6892D"/>
<stop offset="1" stop-color="#C89B2C"/>
</linearGradient>
<linearGradient id="paint2_linear_1_5917" x1="1.43935" y1="4.9112" x2="21.24" y2="17.7461" gradientUnits="userSpaceOnUse">
<stop stop-color="#808080"/>
<stop offset="0.05" stop-color="#9C9C9C"/>
<stop offset="0.13" stop-color="#BFBFBF"/>
<stop offset="0.21" stop-color="#D8D8D8"/>
<stop offset="0.27" stop-color="#E8E8E8"/>
<stop offset="0.33" stop-color="#EDEDED"/>
<stop offset="0.44" stop-color="#E8E8E8"/>
<stop offset="0.58" stop-color="#D8D8D8"/>
<stop offset="0.73" stop-color="#BFBFBF"/>
<stop offset="0.89" stop-color="#9C9C9C"/>
<stop offset="1" stop-color="#808080"/>
</linearGradient>
<linearGradient id="paint3_linear_1_5917" x1="4.06455" y1="9.34461" x2="17.8668" y2="13.6905" gradientUnits="userSpaceOnUse">
<stop stop-color="#EDEDED"/>
<stop offset="0.1" stop-color="#E4E4E4"/>
<stop offset="0.26" stop-color="#CBCBCB"/>
<stop offset="0.47" stop-color="#A2A2A2"/>
<stop offset="0.62" stop-color="#808080"/>
<stop offset="0.63" stop-color="#BFBFBF"/>
<stop offset="0.64" stop-color="#D8D8D8"/>
<stop offset="0.65" stop-color="#EDEDED"/>
<stop offset="0.8" stop-color="#EDEDED"/>
<stop offset="0.81" stop-color="#EDEDED"/>
<stop offset="0.85" stop-color="#E1E1E1"/>
<stop offset="0.93" stop-color="#C1C1C1"/>
<stop offset="1" stop-color="#9E9E9E"/>
</linearGradient>
<linearGradient id="paint4_linear_1_5917" x1="4.73662" y1="9.27129" x2="15.05" y2="13.2678" gradientUnits="userSpaceOnUse">
<stop stop-color="#EDEDED"/>
<stop offset="0.1" stop-color="#E4E4E4"/>
<stop offset="0.26" stop-color="#CBCBCB"/>
<stop offset="0.47" stop-color="#A2A2A2"/>
<stop offset="0.62" stop-color="#808080"/>
<stop offset="0.63" stop-color="#BFBFBF"/>
<stop offset="0.64" stop-color="#D8D8D8"/>
<stop offset="0.65" stop-color="#EDEDED"/>
<stop offset="0.8" stop-color="#EDEDED"/>
<stop offset="0.81" stop-color="#EDEDED"/>
<stop offset="0.85" stop-color="#E1E1E1"/>
<stop offset="0.93" stop-color="#C1C1C1"/>
<stop offset="1" stop-color="#9E9E9E"/>
</linearGradient>
<linearGradient id="paint5_linear_1_5917" x1="5.23883" y1="8.32967" x2="13.2317" y2="13.0353" gradientUnits="userSpaceOnUse">
<stop stop-color="#808080"/>
<stop offset="0.05" stop-color="#9C9C9C"/>
<stop offset="0.13" stop-color="#BFBFBF"/>
<stop offset="0.21" stop-color="#D8D8D8"/>
<stop offset="0.27" stop-color="#E8E8E8"/>
<stop offset="0.33" stop-color="#EDEDED"/>
<stop offset="0.44" stop-color="#E8E8E8"/>
<stop offset="0.58" stop-color="#D8D8D8"/>
<stop offset="0.73" stop-color="#BFBFBF"/>
<stop offset="0.89" stop-color="#9C9C9C"/>
<stop offset="1" stop-color="#808080"/>
</linearGradient>
</defs>
</svg>
